<svg width="74" height="144" viewBox="0 0 74 144" fill="none" xmlns="http://www.w3.org/2000/svg">
<path d="M73.2549 71.2583C73.128 69.479 72.4093 67.7937 71.2144 66.4716L13.8863 2.64501C13.1871 1.86563 12.3415 1.23185 11.3979 0.779966C10.4542 0.328051 9.43093 0.0668789 8.38651 0.0112504C7.34208 -0.0443839 6.29695 0.10671 5.31082 0.455838C4.32467 0.804967 3.41679 1.34522 2.63905 2.04594C1.86133 2.74666 1.22896 3.59404 0.778074 4.53966C0.327155 5.48526 0.066569 6.51069 0.011175 7.55723C-0.0442102 8.60376 0.106664 9.65097 0.455206 10.6391C0.803748 11.6272 1.34309 12.5368 2.04249 13.316L54.5933 71.807L2.04249 130.298C1.34309 131.077 0.803748 131.987 0.455206 132.975C0.106664 133.963 -0.0442102 135.01 0.011175 136.057C0.066569 137.103 0.327155 138.129 0.778074 139.074C1.22896 140.02 1.86133 140.867 2.63905 141.568C3.41679 142.269 4.32467 142.809 5.31082 143.158C6.29695 143.507 7.34208 143.658 8.38651 143.603C9.43093 143.547 10.4542 143.286 11.3979 142.834C12.3415 142.382 13.1871 141.748 13.8863 140.969L71.2144 77.1424C71.931 76.349 72.4808 75.419 72.8314 74.4082C73.1819 73.3973 73.3258 72.3261 73.2549 71.2583Z" fill="white"/>
</svg>
