<svg width="74" height="144" viewBox="0 0 74 144" fill="none" xmlns="http://www.w3.org/2000/svg">
<path d="M0.0175935 71.2583C0.144501 69.479 0.863156 67.7937 2.05808 66.4716L59.3861 2.64501C60.0853 1.86563 60.9309 1.23185 61.8746 0.779966C62.8183 0.328051 63.8415 0.0668789 64.886 0.0112504C65.9304 -0.0443839 66.9755 0.10671 67.9616 0.455838C68.9478 0.804967 69.8557 1.34522 70.6334 2.04594C71.4111 2.74666 72.0435 3.59404 72.4944 4.53966C72.9453 5.48526 73.2059 6.51069 73.2613 7.55723C73.3167 8.60376 73.1658 9.65097 72.8173 10.6391C72.4687 11.6272 71.9294 12.5368 71.23 13.316L18.6792 71.807L71.23 130.298C71.9294 131.077 72.4687 131.987 72.8173 132.975C73.1658 133.963 73.3167 135.01 73.2613 136.057C73.2059 137.103 72.9453 138.129 72.4944 139.074C72.0435 140.02 71.4111 140.867 70.6334 141.568C69.8557 142.269 68.9478 142.809 67.9616 143.158C66.9755 143.507 65.9304 143.658 64.886 143.603C63.8415 143.547 62.8183 143.286 61.8746 142.834C60.9309 142.382 60.0853 141.748 59.3861 140.969L2.05808 77.1424C1.34148 76.349 0.79164 75.419 0.441105 74.4082C0.0905694 73.3973 -0.0533343 72.3261 0.0175935 71.2583Z" fill="white"/>
</svg>
