<?xml version="1.0" encoding="UTF-8"?>
<svg id="Layer_1" xmlns="http://www.w3.org/2000/svg" version="1.1" xmlns:xlink="http://www.w3.org/1999/xlink" viewBox="0 0 638.8 326.7">
  <!-- Generator: Adobe Illustrator 29.5.0, SVG Export Plug-In . SVG Version: 2.1.0 Build 137)  -->
  <defs>
    <style>
      .st0 {
        fill: #efede6;
      }

      .st1 {
        fill: url(#New_Pattern_2-3);
      }

      .st2 {
        fill: #b3b6a2;
      }

      .st3, .st4, .st5, .st6, .st7, .st8, .st9, .st10 {
        fill: none;
      }

      .st3, .st4, .st8, .st9, .st10 {
        stroke-miterlimit: 10;
      }

      .st3, .st9 {
        stroke: #715f59;
        stroke-width: .6px;
      }

      .st4 {
        stroke: #f7f6f3;
        stroke-dasharray: .5 1;
      }

      .st4, .st8 {
        stroke-width: .2px;
      }

      .st4, .st9 {
        stroke-linecap: round;
      }

      .st11, .st12 {
        opacity: .2;
      }

      .st13 {
        fill: #56423d;
      }

      .st6 {
        stroke-linejoin: round;
      }

      .st6, .st10 {
        stroke: #91817c;
        stroke-width: .3px;
      }

      .st7 {
        stroke: #3f2d20;
        stroke-width: .5px;
      }

      .st14 {
        fill: #493631;
      }

      .st15, .st12 {
        isolation: isolate;
      }

      .st8 {
        stroke: #816f69;
        stroke-dasharray: 2 1;
      }

      .st16 {
        fill: #855738;
      }

      .st17 {
        fill: #918c8b;
      }

      .st18 {
        fill: url(#New_Pattern_2-2);
      }

      .st19 {
        fill: url(#New_Pattern_2);
      }

      .st20 {
        fill: #c3c5c1;
      }

      .st21, .st12 {
        fill: #d7d0c2;
      }

      .st22 {
        fill: #63504a;
      }

      .st23 {
        fill: #3f2d20;
      }

      .st24 {
        clip-path: url(#clippath);
      }
    </style>
    <clipPath id="clippath">
      <rect class="st5" width="638.8" height="326.7"/>
    </clipPath>
    <pattern id="New_Pattern_2" data-name="New Pattern 2" x="0" y="0" width="2" height="2" patternTransform="translate(-2415.5 -31763.38) scale(1 -1)" patternUnits="userSpaceOnUse" viewBox="0 0 2 2">
      <g>
        <rect class="st5" width="2" height="2"/>
        <g>
          <rect class="st5" width="2" height="2"/>
          <g>
            <rect class="st5" width="2" height="2"/>
            <g>
              <rect class="st5" width="2" height="2"/>
              <circle class="st2" cx="1" cy="1" r=".3"/>
            </g>
          </g>
        </g>
      </g>
    </pattern>
    <pattern id="New_Pattern_2-2" data-name="New Pattern 2-2" x="0" y="0" width="2" height="2" patternTransform="translate(-2413.7 -31766.38) scale(1 -1)" patternUnits="userSpaceOnUse" viewBox="0 0 2 2">
      <g>
        <rect class="st5" width="2" height="2"/>
        <g>
          <rect class="st5" width="2" height="2"/>
          <g>
            <rect class="st5" width="2" height="2"/>
            <g>
              <rect class="st5" width="2" height="2"/>
              <circle class="st2" cx="1" cy="1" r=".3"/>
            </g>
          </g>
        </g>
      </g>
    </pattern>
    <pattern id="New_Pattern_2-3" data-name="New Pattern 2-3" x="0" y="0" width="2" height="2" patternTransform="translate(-2417.6 -31767.08) scale(1 -1)" patternUnits="userSpaceOnUse" viewBox="0 0 2 2">
      <g>
        <rect class="st5" width="2" height="2"/>
        <g>
          <rect class="st5" width="2" height="2"/>
          <g>
            <rect class="st5" width="2" height="2"/>
            <g>
              <rect class="st5" width="2" height="2"/>
              <circle class="st2" cx="1" cy="1" r=".3"/>
            </g>
          </g>
        </g>
      </g>
    </pattern>
  </defs>
  <g class="st24">
    <g>
      <g id="BG">
        <rect class="st0" x="-275.4" y="-284.5" width="1180.3" height="910.7" rx="2.7" ry="2.7"/>
      </g>
      <g id="Parks">
        <g class="st11">
          <path class="st21" d="M-240.6,212.6l47.6,7.6-1.3,15.1,7.8,10.7,4.2,11.6,49.1,7.8,7.1-46.7,78.4,11.8s8.3-15.9-4.2-47.1c0,0,.3-3,4.8-3.4,5.1-.4,10.7,3,24.7,7.9l14.2-6.4L1.9,124.6l27.6,2.9,15.1-27.1,16.8,1.1,5.9-6,51.9,9.1,8-41.3,21.6,3.1,13.7-91.2h-12.2l-11.8-6.2-10.4,3.3-5.6,14.4-8.9,3.6-19.6-4.9-10.2-7.3-7.1.4-11,4.5,13.8,26.6c.1.2.3,2.7,0,2.7L-85.9-19.4l16-104-22.2-17.9-5.7-8.5,1.3-5.7,12.2-7.8,20.7,9-3.8,24,11.2,13.3,12-1.8,3.3-25-10-9-8.8-12.7,2-14.7,18.7,2.3,6.6-38.7-8.3-1.7,3.3-17.8,14.7,2.3-11-28.3-117.5-3.3-5.5,27.3,9.8,1.7-5.2,23.5-34.8-5.7-4.2,18,33.2,19.2-1.2,5.5-38.2-21.8-17.6,5.8-3.4,26.2-26.1-3.1V194.6l3.8,17.9h0v.1h0Z"/>
          <path class="st21" d="M199.4,235l-2.1,9.9c-.1.7-1.2,2.1-.5,2.2l22,2.4c.3,0,.5.1.7.3l6.4,5.7c.5.4,1.2.4,1.6-.1l11.3-13.2c.3-.4.9-.5,1.4-.3l4.2,2.2c.5.3,1.2,0,1.5-.4l4-6.3c.3-.5.2-1.2-.3-1.6l-6.5-4.6c-.2-.2-.5-.2-.8-.2l-4,.4c-.6,0-1.1-.3-1.3-.9l-.6-3.3c-.1-.6.6-.1,0,0l-32.2,7.7-4.1-.9c-.4,0-.8.4-.9.9h0l.2.1h0Z"/>
          <path class="st21" d="M143.6,201.1l-2.1,11.6,18.9,3.7,3.3,5.9,12.8-7.8-9.3-4.8c-1.8-.9-3.2-2.5-3.9-4.5l-1.5-4.5c-.4-1.1-1.4-1.8-2.6-1.8h-4c-.8,0-1.6-.4-2.1-1l-1.4-1.6c-1.1-1.3-3-1.3-4.1,0l-3.3,3.6c-.3.4-.6.8-.7,1.3h0v-.1h0Z"/>
          <polygon class="st21" points="222.2 100.7 259.4 112.9 272.5 85.4 277.3 73.8 278.5 69.6 267.6 60.2 222.2 100.7"/>
          <polygon class="st21" points="360.3 75.3 372.5 83.8 385 77.5 392.3 68.4 378.1 54 360.3 75.3"/>
          <polygon class="st21" points="83.3 227.9 81.5 239.1 94.2 241.1 96.4 229.3 83.3 227.9"/>
          <polygon class="st21" points="679.3 -15.7 631.6 22.5 679.3 82.7 692.6 20.5 679.3 -15.7"/>
          <polygon class="st21" points="558.4 302.7 574.9 294.7 578.6 301.4 604.1 286.1 632.6 317.3 638 333.7 643.7 344.5 620.4 342.6 617.9 357.4 582.9 351.9 569.6 349.9 558.4 302.7"/>
        </g>
        <path class="st19" d="M-240.6,212.6l47.6,7.6-1.3,15.1,7.8,10.7,4.2,11.6,49.1,7.8,7.1-46.7,78.4,11.8s8.6-14.6-4.2-47.1c0,0,1.3-2.9,4.8-3.4,5-.8,8.8,2.4,24.7,7.9l14.2-6.4L1.9,124.6l27.6,2.9,15.1-27.1,16.8,1.1,5.9-6,51.9,9.1,8-41.3,21.6,3.1,13.7-91.2h-12.2l-11.8-6.2-10.4,3.3-5.6,14.4-8.9,3.6-19.6-4.9-10.2-7.3-7.1.4-11,4.5,13.3,25.3.6,2.4v1.6c-.1,0-165.7-31.8-165.7-31.8l16-104-22.2-17.9-5.7-8.5,1.3-5.7,12.2-7.8,20.7,9-3.8,24,11.2,13.3,12-1.8,3.3-25-10-9-8.8-12.7,2-14.7,18.7,2.3,6.6-38.7-8.3-1.7,3.3-17.8,14.7,2.3-11-28.3-117.5-3.3-5.5,27.3,9.8,1.7-5.2,23.5-34.8-5.7-4.2,18,33.2,19.2-1.2,5.5-38.2-21.8-17.6,5.8-3.4,26.2-26.1-3.1V194.6l3.8,17.9h0l.2.1h0Z"/>
        <path class="st19" d="M199.4,235l-2.1,9.9c-.1.7-1.2,2.1-.5,2.2l22,2.4c.3,0,.5.1.7.3l6.4,5.7c.5.4,1.2.4,1.6-.1l11.3-13.2c.3-.4.9-.5,1.4-.3l4.2,2.2c.5.3,1.2,0,1.5-.4l4-6.3c.3-.5.2-1.2-.3-1.6l-6.5-4.6c-.2-.2-.5-.2-.8-.2l-4,.4c-.6,0-1.1-.3-1.3-.9l-.6-3.3c-.1-.6.6-.1,0,0l-32.2,7.7-4.1-.9c-.4,0-.8.4-.9.9h0l.2.1h0Z"/>
        <path class="st19" d="M143.6,201.1l-2.1,11.6,18.9,3.7,3.3,5.9,12.8-7.8-9.3-4.8c-1.8-.9-3.2-2.5-3.9-4.5l-1.5-4.5c-.4-1.1-1.4-1.8-2.6-1.8h-4c-.8,0-1.6-.4-2.1-1l-1.4-1.6c-1.1-1.3-3-1.3-4.1,0l-3.3,3.6c-.3.4-.6.8-.7,1.3h0v-.1h0Z"/>
        <path class="st19" d="M226.6,102.2l30.7,10.2c1.3.4,2.7-.2,3.3-1.4l11.5-24.5,4.9-11.9s0-.2.1-.3l.9-3.1c.3-1,0-2.1-.8-2.8l-7.8-6.7c-1-.9-2.6-.9-3.6,0l-40.2,35.8c-1.6,1.4-1,3.9.9,4.6h0l.1.1h0Z"/>
        <polygon class="st19" points="360.3 75.3 372.5 83.8 385 77.5 392.3 68.4 378.1 54 360.3 75.3"/>
        <polygon class="st19" points="83.3 227.9 81.5 239.1 94.2 241.1 96.4 229.3 83.3 227.9"/>
        <polygon class="st19" points="679.3 -15.7 631.6 22.5 679.3 82.7 692.6 20.5 679.3 -15.7"/>
        <polygon class="st19" points="558.4 302.7 574.9 294.7 578.6 301.4 604.1 286.1 632.6 317.3 638 333.7 643.7 344.5 620.4 342.6 617.9 357.4 582.9 351.9 569.6 349.9 558.4 302.7"/>
        <path class="st12" d="M278.5,187.2l-3,5.7c0,.7-.3,10.3,0,11,3.4,8.6,6.1,6.8,11.9,9.1l21,6.3c1.7.7,7.5,2.7,9.3,2.8l39.9-2.8v-3.9l-41.2-2.2c-2.6-.1-5-.9-7.3-2.2l-18.5-10.7c-3.1-1.8-4.9-5.3-4.6-8.9l.4-4.2c.1-1.4,6.7-15.1,7-16.4v-12.3l-10.1,16.2c-2,3.9-5,8.1-5,12.4h0l.2.1h0Z"/>
        <path class="st18" d="M278.5,187.2l-3,5.7c0,.7-.3,10.3,0,11,3.4,8.6,6.1,6.8,11.9,9.1l21,6.3c1.7.7,7.5,2.7,9.3,2.8l39.9-2.8v-3.9l-41.2-2.2c-2.6-.1-5-.9-7.3-2.2l-18.5-10.7c-3.1-1.8-4.9-5.3-4.6-8.9l.4-4.2c.1-1.4,6.7-15.1,7-16.4v-12.3l-10.1,16.2c-2,3.9-5,8.1-5,12.4h0l.2.1h0Z"/>
        <path class="st12" d="M323.3,258.9l-2.1,9.9c-.1.7-1.4,4.8-.7,4.8l14.2,1.7c.3,0,1.4-8.2,1.6-8.1l12.8-4.7c.5.4,4.4-.5,4.8-1l2.4-1.2c-.6,0-2.1-10.1-2.2-10.7l-14.9.6c-.1-.6-7.2-.3-7.8-.2v7.5l-7.3.4c-.4,0-.8.4-.9.9h0l.1.1h0Z"/>
        <path class="st1" d="M323.3,258.7l-2.1,9.9c-.1.7-1.4,4.8-.7,4.8l14.2,1.7c.3,0,1.4-8.2,1.6-8.1l12.8-4.7c.5.4,4.4-.5,4.8-1l2.4-1.2c-.6,0-2.1-10.1-2.2-10.7l-14.9.6c-.1-.6-7.2-.3-7.8-.2v7.5l-7.3.4c-.4,0-.8.4-.9.9h0l.1.1h0Z"/>
      </g>
      <g id="River">
        <path class="st20" d="M-24,611.3h.1c-11.5-26.8-21.3-54.7-23.7-83.8-2.3-29,3.4-59.5,20.6-83.1,7.1-9.7,16.8-18.5,28.7-19.9,12-1.4,23.4,4.8,33.4,11.5,62.1,41.4,104.8,105.4,154.5,161.1,5.7,6.3,11.6,12.7,19.3,16.4,6.8,3.3,14.5,4.3,22,5.1,44.9,5.3,89.9,9.7,134.9,13.2,19.5,1.5,39.9,2.8,57.9-4.9s32.5-27.4,27.6-46.3c-3.8-14.7-17.8-24.6-32.2-29.5-22.1-7.4-46-5.6-69.1-8.5-11.6-1.5-24.2-5-30.3-15-7-11.6-2-26.5,3.6-38.8,9.2-19.9,20.4-39.7,38-52.7,22.2-16.4,51.4-19.7,79.1-19.8s55.8,2.6,82.6-4.2c24-6.1,47.5-21.6,54.4-45.4,4-13.5,2.1-28.1-1.7-41.6-13-46.4-50.1-85.2-95.9-100.4-48.7-16.2-99.6-3.6-149.8-5.2-13.2-.4-33-2.6-44.8-9.4-13.1-7.5-7.8-23.6-1.8-35.4,6.2-12.3,15.1-23.4,22.8-34.8,9.8-14.4,19.7-28.7,29-43.4,13.7-21.6,35.9-48.8,63.4-76.2,20.7-20.6,42.8-38.3,69.7-53.3,13-7.3,26-10.9,40.2-5.3,18.7,7.4,31.2,26.2,41.1,42.4,11.2,18.3,21,37.5,32.8,55.6,8.8,13.5,18.7,26.4,30.8,37.1,15,13.3,35.1,23.3,54.5,18.7,24.7-5.9,38.5-32.9,41.8-58,5.9-43.7-9.4-87.7-6.5-131.7.5-7,1.5-14.1,5.2-20,3.9-6.1,11.7-10.7,18.9-8.2,7.5,2.6,11.4,11,13.8,17.9,6.4,18.1,9.4,37.2,13.3,56,3.9,18.8,8.9,37.7,18.7,54.2s25.2,30.5,43.8,34.9c14.4,3.4,30.2.8,42.7-7.2,6.9-4.4,12.8-10.4,16.2-17.8,3.4-7.4,4.1-16.2.8-23.7-9.2,7.7-19.3,14.8-30.8,18.2s-24.7,2.8-34.6-3.9c-8.2-5.5-13.4-14.4-17.2-23.5-13.9-33.2-12.6-71.3-27.5-104.1-7.8-17.1-22-33.3-40.6-35.2-15.7-1.6-31.1,7.7-40.2,20.6-12.7,18.2-14.3,41.5-14,62.9.4,27.5,3.7,54.8,8.3,81.9,1.9,11.1,4,22.4,1.9,33.5s-9.5,21.9-20.4,24.5c-21.7,5.1-36.6-19.4-46.5-34.6-14-21.3-26-44.2-42.4-63.7-12.5-14.8-24.9-30.2-40.5-41.8-13.8-10.3-28.1-15.1-45.5-13-11.6,1.4-22.9,5.6-33,11.4-17.8,10.1-32.8,23.4-47.8,37.2-48.3,44.3-68.1,66.4-95.2,102.9-18.9,25.5-34.4,51.1-46.1,80.8-4.4,11.1-6.8,23.2-5.9,35.1,2.4,33,33.9,46.5,63.2,47.8,29.5,1.3,53.4-.4,82.8-3.6s66.1-7.5,91.5,7.7c28,16.8,43.9,48.1,54.3,79.1,3.8,11.4,6.9,25-.2,34.7-6.2,8.5-17.7,10.8-28.2,12-60.5,7.2-126.7,3.9-175.7,40.1-29.3,21.7-48.5,56.4-51.2,92.8-.7,8.8-.4,17.8,3.2,25.9,7.3,16.7,26.5,24.9,44.6,26.9s36.5-.6,54.5,1.9c13.1,1.9,27.7,8.5,30.3,21.5,2.2,11.4-6.5,22.6-17.1,27.2-10.6,4.6-22.6,4.3-34.2,3.8-29.4-1.1-58.8-2.3-88.2-3.4-11.8-.5-23.8-1-34.8-5.1-12.9-4.8-23.4-14.3-33.2-23.9-54.9-53.8-98.1-120.7-162.3-163-20.6-13.6-46.4-24.5-69.5-15.8-12.3,4.6-22,14.3-29.7,25-18.7,26-26.6,58.8-25.7,90.9.9,32,10,63.4,22.9,92.7,6.7-1.6,13.3-3.2,20-4.9l.3-.1h0Z"/>
        <path class="st17" d="M285.1,232.8h0c.3.1.5.2.8,0,.2,0,.5-.2.7-.4h0c.3.3.6.5,1,.5s.7-.1,1-.5h0c.3.2.5.4.8.4h.7c-.3.1-.5.2-.8.1-.3,0-.5-.2-.8-.4-.4.3-.7.5-1.1.5-.3,0-.7-.2-1-.5-.2.2-.5.4-.7.4-.3,0-.5,0-.8-.1h.2,0Z"/>
        <path class="st17" d="M284.2,234.2h0c.3.1.5.2.8,0,.2,0,.5-.2.7-.4h0c.3.3.6.5,1,.5s.7-.1,1-.5h0c.3.2.5.4.8.4h.7c-.3.1-.5.2-.8.1-.3,0-.5-.2-.8-.4-.4.3-.7.5-1.1.5-.3,0-.7-.2-1-.5-.2.2-.5.4-.7.4-.3,0-.5,0-.8-.1"/>
        <path class="st17" d="M287.3,149.4h0c.3.1.5.2.8,0,.2,0,.5-.2.7-.4h0c.3.3.6.5,1,.5s.7-.1,1-.5h0c.3.2.5.4.8.4h.7c-.3.1-.5.2-.8.1-.3,0-.5-.2-.8-.4-.4.3-.7.5-1.1.5-.3,0-.7-.2-1-.5-.2.2-.5.4-.7.4-.3,0-.5,0-.8-.1h.2,0Z"/>
        <path class="st17" d="M286.4,150.7h0c.3.1.5.2.8,0,.2,0,.5-.2.7-.4h0c.3.3.6.5,1,.5s.7-.1,1-.5h0c.3.2.5.4.8.4h.7c-.3.1-.5.2-.8.1-.3,0-.5-.2-.8-.4-.4.3-.7.5-1.1.5-.3,0-.7-.2-1-.5-.2.2-.5.4-.7.4-.3,0-.5,0-.8-.1"/>
        <path class="st17" d="M478.4,238.2h0c.3.1.5.2.8,0,.2,0,.5-.2.7-.4h0c.3.3.6.5,1,.5s.7-.1,1-.5h0c.3.2.5.4.8.4h.7c-.3.1-.5.2-.8.1-.3,0-.5-.2-.8-.4-.4.3-.7.5-1.1.5-.3,0-.7-.2-1-.5-.2.2-.5.4-.7.4-.3,0-.5,0-.8-.1h.2,0Z"/>
        <path class="st17" d="M477.5,239.6h0c.3.1.5.2.8,0,.2,0,.5-.2.7-.4h0c.3.3.6.5,1,.5s.7-.1,1-.5h0c.3.2.5.4.8.4h.7c-.3.1-.5.2-.8.1-.3,0-.5-.2-.8-.4-.4.3-.7.5-1.1.5-.3,0-.7-.2-1-.5-.2.2-.5.4-.7.4-.3,0-.5,0-.8-.1"/>
        <path class="st17" d="M400.7,224.8h0c.3.1.5.2.8,0,.2,0,.5-.2.7-.4h0c.3.3.6.5,1,.5s.7-.1,1-.5h0c.3.2.5.4.8.4h.7c-.3.1-.5.2-.8.1-.3,0-.5-.2-.8-.4-.4.3-.7.5-1.1.5-.3,0-.7-.2-1-.5-.2.2-.5.4-.7.4-.3,0-.5,0-.8-.1h.2,0Z"/>
        <path class="st17" d="M399.8,226.2h0c.3.1.5.2.8,0,.2,0,.5-.2.7-.4h0c.3.3.6.5,1,.5s.7-.1,1-.5h0c.3.2.5.4.8.4h.7c-.3.1-.5.2-.8.1-.3,0-.5-.2-.8-.4-.4.3-.7.5-1.1.5-.3,0-.7-.2-1-.5-.2.2-.5.4-.7.4-.3,0-.5,0-.8-.1"/>
        <path class="st17" d="M325.3,72.1h0c.3.1.5.2.8,0,.2,0,.5-.2.7-.4h0c.3.3.6.5,1,.5.3,0,.7-.1,1-.5h0c.3.2.5.4.8.4h.7c-.3.1-.5.2-.8.1-.3,0-.5-.2-.8-.4-.4.3-.7.5-1.1.5-.3,0-.7-.2-1-.5-.2.2-.5.4-.7.4-.3,0-.5,0-.8-.1h.2,0Z"/>
        <path class="st17" d="M324.4,73.5h0c.3.1.5.2.8,0,.2,0,.5-.2.7-.4h0c.3.3.6.5,1,.5.3,0,.7-.1,1-.5h0c.3.2.5.4.8.4h.7c-.3.1-.5.2-.8.1-.3,0-.5-.2-.8-.4-.4.3-.7.5-1.1.5-.3,0-.7-.2-1-.5-.2.2-.5.4-.7.4-.3,0-.5,0-.8-.1"/>
      </g>
      <g id="Ferry_line">
        <path class="st4" d="M541.1,306.2s6.9-11.8,3.6-17.8-29.5-44.1-53.7-51.6-36.6-8.6-48.4-8-59.7,9.3-82.9-6.7l-14.7,25s-93-8.4-77.4-67.2c0,0,18.8-39,18.4-49.8,0,0,7.8-2.9,12.6-9S385.6,7.6,385.6,7.6c0,0,82.5-56.6,91.9-58.2s32-10.4,54.8,11c22.8,21.3,33.3,33.3,44.5,36.6"/>
        <path class="st14" d="M385.6,10.5c1.6,0,2.8-1.3,2.8-2.9s-1.3-2.9-2.8-2.9-2.8,1.3-2.8,2.9,1.3,2.9,2.8,2.9"/>
        <path class="st14" d="M359.7,224.3c1.6,0,2.8-1.3,2.8-2.9s-1.3-2.9-2.8-2.9-2.8,1.3-2.8,2.9,1.3,2.9,2.8,2.9"/>
        <path class="st14" d="M345,251.1c1.6,0,2.8-1.3,2.8-2.9s-1.3-2.9-2.8-2.9-2.8,1.3-2.8,2.9,1.3,2.9,2.8,2.9"/>
        <path class="st14" d="M284.8,132.6c1.7,0,3-1.4,3-3s-1.3-3-3-3-3,1.4-3,3,1.3,3,3,3"/>
      </g>
      <g id="St_2">
        <path class="st10" d="M208.2,316.6l17.2-1.8c1.6-.2,3.2.2,4.5,1.1l9.5,6.5c1.5,1.1,3.5,1.4,5.3,1l5.1-1.1c2.4-.5,4.9.3,6.5,2.1l4.8,5.4c.3.4.6.8.9,1.2l23.7,42.7c.4.7.9,1.3,1.5,1.9l36.5,31.2c2,1.7,4.7,2.1,7,1.1l21.8-9.4c.4-.2.8-.3,1.2-.4l16.2-3.6c1.5-.3,2.8-1.1,3.7-2.3l10.2-12.2c2.7-3.2,6-5.9,9.7-7.8l1.6-.9c2.5-1.3,5.6-.9,7.7,1.1h0c2.6,2.4,6.5,2.5,9.1.1l32.1-28.9c3.6-3.2,2.7-9-1.6-11.1l-15-7.3c-1.7-.8-3.6-.9-5.3-.2l-5.9,2.2c-1.2.5-2.5.6-3.8.3l-11.2-2.4c-3.2-.7-5.4-3.6-5.3-6.8l.6-17.5c0-.7,0-1.5-.3-2.2l-6.7-22.4c-.2-.8-.3-1.7-.3-2.5l.3-4"/>
        <path class="st10" d="M40.6,384.2l23.3,10c2.2,1,4.7,1.5,7.1,1.5h15.6c4,0,8-1.1,11.5-3.1,6-3.4,15.8-9,22-12.6,3.8-2.2,8.3-2.9,12.6-2l69.5,14.2c2.4.5,4.8-.8,5.8-3l16.8-38.9c1.2-2.7,1.5-5.7,1-8.6l-1.8-10.4c-.8-4.5-3.5-8.4-7.5-10.7l-7.2-4.1-14.8-5.4s-1.2-18.8,10.7-28.7c11.8-9.9,19.5-12.7,21.2-26.6"/>
        <line class="st10" x1="174.8" y1="215.4" x2="156.9" y2="316.5"/>
        <path class="st10" d="M279.9,363.2l14.3-14.3c1.2-1.2,2.8-1.9,4.5-2l19.1-1.3c2.3-.1,4.3-1.4,5.5-3.3l8.2-13.2c1-1.6,2.6-2.7,4.4-3.1l32-7.1c.9-.2,1.9-.2,2.9,0l32,6.4"/>
        <path class="st10" d="M404,325.6v.4c.4,1.4.3,2.9-.2,4.3l-7.6,21.6c-1.7,4.9-.9,10.3,2.3,14.4l4.6,6"/>
        <path class="st10" d="M243.7,259.2l-8.4-3.3c-1.5-.6-3.2-.6-4.8-.2h0c-2.6.8-5.4.1-7.3-1.8l-2.7-2.7c-1.1-1.1-2.6-1.9-4.2-2.1l-68.3-8.9"/>
        <line class="st10" x1="212" y1="276.9" x2="139.9" y2="265.3"/>
        <path class="st10" d="M131,236.4l9.2,13.4c1.5,2.2,2.1,5,1.6,7.7l-9,47"/>
        <line class="st10" x1="172.6" y1="227.9" x2="199.7" y2="232"/>
        <path class="st10" d="M-50.1,346l-4.1-6.4c-1.1-1.6-1.1-3.7-.2-5.4l3.7-6.5c.4-.7.6-1.4.7-2.2l1.1-14.7c0-1-.1-2-.6-2.8l-3.5-6.7c-.3-.5-.5-1.1-.5-1.7l-2.1-16.2c-.2-1.2.1-2.5.8-3.5l7-11c.7-1,.9-2.3.8-3.5l-.7-5.4v-1.5l5.1-31.9c1.2-7.2.5-14.6-1.8-21.5l-6-17.7c-.8-2.5-2.6-4-.5-5.6l1.5-1.2c1.8-1.4,4.8-.7,6.8.1l19.5,6.6c.6.2,1.1.5,1.5.9l11.5,9.1c1.9,1.5,4.1,2.5,6.4,3l13.4,2.8c3,.6,6.1.3,8.9-.8l8.3-3.4c5.8-2.3,12.5-.9,16.8,3.5l4.1,4.2c1.1,1.2,2.8,1.7,4.4,1.6l5.2-.6c1.7-.2,3.4.5,4.6,1.8h0c1.2,1.4,3.1,2,5,1.7l6.1-1.2c1.2-.2,2.5,0,3.6.6l8.2,4.7c1.5.9,3.3.9,4.9.2l3.2-1.5c1.3-.6,2.2-1.7,2.7-3l.7-1.9c.5-1.3,1.4-2.4,2.7-3l3.6-1.8c1.1-.5,2.2-.7,3.4-.4l7.8,1.6c.6.1,1.3.1,1.9,0l9-1.5,41.5-237.9c.5-2.6,2.5-4.7,5.1-5.1l5.4-1c2.8-.5,5-2.9,5.2-5.8l8.1-120.7c.4-5.7-1.4-11.3-5-15.6l-6.5-8c-1.7-2.1-4.3-3.2-7-3l-7.9.6c-4.6.3-8.5-3.1-8.9-7.7h0c-.2-2.4.7-4.8,2.5-6.5l28.4-27.5c3.4-3.3,4.4-8.4,2.6-12.8l-1.2-2.8c-1.2-2.7-1.2-5.8-.2-8.6l4.5-12"/>
        <path class="st10" d="M124.9,204l-.4,4.3c-.2,1.9,1.2,3.5,3,3.8l28.9,3.7c1.7.2,3.2,1.1,4.3,2.5l3.1,4"/>
        <path class="st10" d="M195.9,70.6l22.6,27.2c2.3,2.8,3.3,6.5,2.8,10.1l-14,85.4-10.3,53.4,8.6,16.2,5.5,13.8"/>
        <path class="st10" d="M156.9,67.6l22.8,26.2c1.6,1.8,3.8,2.9,6.1,3.1l33,2.9c.7,0,1.4.2,2.1.4l62.2,20.9"/>
        <line class="st10" x1="138" y1="126.8" x2="40.6" y2="110.8"/>
        <line class="st10" x1="212.9" y1="158.6" x2="153.7" y2="148.8"/>
        <line class="st10" x1="-46.5" y1="250.1" x2="57.3" y2="268.4"/>
        <polyline class="st10" points="-5.1 257.4 20 215.4 17.6 202.8"/>
        <path class="st10" d="M-18.5,321.3l8.3,6.1c3.1,2.3,4.8,6.1,4.4,10l-1.6,14.4c-.3,2.6.4,5.3,1.9,7.4l2.6,3.7c1.6,2.3,4,3.9,6.8,4.4l22.9,4.5c1.6.3,3,1,4.3,1.9l10.9,8"/>
        <path class="st10" d="M448.3-55.1l29.2,35.8-7.8,11-71.6,71c-3.8,3.8-7.1,8.2-9.7,12.9l-70.6,128.4"/>
        <polyline class="st10" points="494.3 4.2 477.5 -19.3 437.6 218"/>
        <line class="st10" x1="550.3" y1="120.4" x2="379.7" y2="91.3"/>
        <line class="st10" x1="465" y1="54" x2="572.8" y2="-15.7"/>
        <path class="st10" d="M402.8,95.3l-11.5,71.7c-.9,5.7,1.8,11.4,6.8,14.3h0c3,1.7,6.5,2.3,9.9,1.5l26.3-5.6c2.1-.5,4.4-.4,6.5.1l35.3,9.3c2.5.6,5,.6,7.5-.1,4.4-1.3,11.9-3.5,17.3-5,4.4-1.3,9-1.6,13.6-.9,2.7.4,5.7.8,8.2,1.2,3.4.5,6.4,2.2,8.6,4.9l3.3,4"/>
        <path class="st10" d="M533.4,117.5l5.6,7.5c3.4,4.6,4.9,10.3,4.3,16l-3.9,35.6c-.3,3-1.2,6-2.5,8.7l-3.8,8c-1.3,2.8-2,5.9-1.9,8.9l.5,15.1c.1,4.9,2.1,9.5,5.5,12.9l33.4,33.7c3.9,3.9,8.4,7,13.4,9.3l16.3,7.4c1.8.8,3.3,2.1,4.3,3.6l10.3,15.1c1.5,2.2,3.8,3.8,6.4,4.3h0c3.3.7,6.1,3,7.4,6.1l5.1,12"/>
        <path class="st10" d="M156.7-195.7l-7.9,13.1c-1.9,3.1-4.6,5.6-7.9,7.3l-14.4,7.2c-2.9,1.4-4.8,4.3-5.1,7.6l-.4,5.8c-.2,3-3,5.1-6,4.6l-4-.7c-.9-.2-1.7-.5-2.5-1l-13.7-9.2c-8-5.4-17-8.9-26.5-10.4l-39.5-6.2c-11.1-1.7-22.2,2.3-29.6,10.7l-3.1,3.5c-.9,1-1.5,2.1-1.9,3.4l-1.7,5.5c-1.1,3.4-4,5.9-7.5,6.4h0c-3.8.6-6.8,3.4-7.7,7.1l-2.8,12.2c-.7,3.2-3.1,5.8-6.2,6.8l-7,2.2c-2.1.7-3.9,2.1-5.1,4l-3.5,5.9c-1.1,1.9-2.9,3.3-5,4l-18.9,6.2c-3.4,1.1-5.9,4.2-6.3,7.7v1c-.2.5.3,1,.8.9l19.9-2.4c1.8-.2,3.6.2,5.1,1.2l15.8,10.7c7.1,4.8,13,11.1,17.4,18.5h0c3,5.1,5.2,10.6,6.5,16.3l3.9,17c.2,1,.6,1.9,1.2,2.7l5.3,7.3C-.3-17.2.2-15.2-.1-13.2L-1.5-5.1C-2.2-1.2.2,2.5,3.9,3.5l72.8,19.4c9.7,2.6,17.6,9.6,21.2,19l2.7,7s4.4,12.4-3,14"/>
        <path class="st10" d="M78.4,23.4l1.3-11.3c.2-1.2,0-2.5-.6-3.6l-12.6-24.1c-.8-1.5-2.2-2.6-3.8-3l-4.1-1c-.6-.1-1.1-.4-1.6-.7l-12.7-7.5c-1.8-1.1-2.9-3.1-2.8-5.3v-2.7c.2-2.4-1.2-4.7-3.5-5.6l-2.7-1.1c-2.5-1-3.9-3.6-3.5-6.3l.8-4.7c.3-2-.4-4-1.9-5.3l-2-1.7c-1.3-1.1-2-2.7-2-4.4v-4c0-1.5.6-3,1.6-4l38.2-39.5c1-1,2.2-1.6,3.6-1.7l14.1-1.4c1.1-.1,2.1-.5,2.9-1.1l3.6-2.7c1.8-1.3,2.6-3.5,2.2-5.7l-.8-4.6c-.3-1.9.3-3.9,1.8-5.3l17.1-15.8"/>
        <path class="st10" d="M601.1-87.1l64,72.9c1.7,1.9,1.5,4.9-.5,6.5l-53.7,45.8"/>
        <polyline class="st10" points="202.9 215.4 207.2 215.4 237 201.3 240 186.2"/>
        <path class="st10" d="M158.8,305.5l11.5,2.8c1.5.4,2.9,1,4.2,1.9l2.7,1.9c3.4,2.4,7.8,2.9,11.7,1.3l5.5-2.2"/>
        <line class="st10" x1="202.4" y1="285" x2="222.2" y2="296.4"/>
        <polyline class="st10" points="199.5 233.1 204.3 235 236.3 226.8 249.5 210.2"/>
        <line class="st10" x1="214.3" y1="232.5" x2="206.5" y2="215.4"/>
        <path class="st10" d="M249.5,176.3s-1.3,12.2-1.9,14.7c-.7,2.5-3.5,3-3.5,3"/>
        <path class="st10" d="M242.1,174.5s9.4,3.3,11.7.8,3.7-15.9,3.7-18.3-5.4-6.5-7.9-5.8"/>
        <line class="st10" x1="115.7" y1="259.5" x2="109" y2="300.7"/>
        <path class="st10" d="M136.9,135.5l15.9,5.5c1.4.5,2.2,1.9,1.9,3.3l-2.9,13.9c-.3,1.2-1.3,2.1-2.5,2.3l-2.2.2c-1.2.1-2.3,1.1-2.5,2.3l-1.1,5.3c-.3,1.5-1.7,2.5-3.2,2.3l-9.2-1.3"/>
        <path class="st10" d="M217.8,128.9l30.1,4.9s4.5-9.6,5-12.7.4-7.4,1.5-9.6"/>
        <path class="st6" d="M80.1,285s-11.7,28.6-11.3,30.7c0,0,55.9,8.9,57.6,10s1.5,2.2,1.3,3.2-1.3,6.4-1.3,6.4c0,0,6.3.6,14.7,2.2,14.7,2.8,35.2,9.3,40.9,8.5,8.1-1.2,13.9,12.1,13.9,12.1,0,0,9.4,7.2,19.6,1.7s9.3-9.5,9.3-9.5"/>
        <path class="st10" d="M49,207.6s-7.8,42.8-7.6,43.2,15.6,2,16.7,2.7,6.7,3.2,9.3,8.1l11.6,21.3c3.2,5.9,8.5,10.4,14.8,12.5l13.9,4.8c1.5.5,3,.9,4.5,1.1l25.7,4c5.1.8,9.8,3,13.6,6.4l6.9,6.1c3,2.6,6.5,4.6,10.4,5.7l7.2,2.1c6.6,1.9,13.7,1.2,19.8-2.1l8.6-4.5c4.5-2.4,8.2-5.9,10.7-10.3l39.8-69.1"/>
        <path class="st10" d="M229.5,283.8l33.4,18.9,13.5,36.6c1.2,3.3,4.1,5.7,7.6,6.3l10.6,1.8c.9.2,1.7.6,2.4,1.2l29.3,29.7c.8.8,1.8,1.2,2.8,1.3l33,2.1c1.4,0,2.7-.5,3.6-1.5l10.2-11.9h5c1,.2,2.1-.2,2.9-.9l49.2-39.9"/>
        <path class="st10" d="M249.8,322.3s8.1-22,17.1-21.7,65.3,9.6,69,13.6c3.7,3.9,16,14.8,32,9.2l10.2-52.9"/>
        <path class="st10" d="M374.8,319.7s-3.2,2.7-6.8,3.7"/>
        <path class="st6" d="M68.8,315.7s.6,18.2-1.5,25.3"/>
        <path class="st6" d="M44.3,318.6s22,11.2,23.9,16.7"/>
      </g>
      <g id="ST_1">
        <path class="st3" d="M-280.2,613.1l51.9-20.8c24.2-9.7,43.7-28.6,54.1-52.5l26.1-59.7c4.5-10.3,11.9-19.2,21.3-25.4l5.4-3.6c12.3-8.2,20.8-20.9,23.6-35.4l1-5c2-10,1.2-20.3-2.4-29.8h0c-3.9-10.6-4.5-22.2-1.6-33.1l11.7-44.8c2.3-8.7,6-17,11.1-24.4l6.1-9.1c11.9-17.5,16.2-39,12.1-59.7l-1.3-6.4c-6.4-32.3,8.8-65,37.6-81l84.8-47c3.4-1.9,7.1-3.5,10.8-4.7l18.1-6c9.3-3,19.1-3.9,28.7-2.5l63.7,9.2c9.5,1.4,19.2-1.5,26.4-7.8l99.3-86.4c8.9-7.8,19.2-13.9,30.2-18.1l99.5-37.6"/>
        <path class="st3" d="M-249.8,440.7l43.3,12.9c5.4,1.6,11.1,1.1,16.2-1.2l12-5.7c3.2-1.5,6.7-2.3,10.2-2.2h.7c6.1.1,12-2.2,16.4-6.5l40-39.2c2.7-2.7,4.7-6,5.8-9.6l.3-.9c2.4-8,9.1-14,17.3-15.7h0c2.9-.6,5.6-1.7,8.1-3.3l10.3-6.8c4.9-3.2,9.4-6.9,13.5-11l14.1-14.1c10.9-10.9,24.7-18.4,39.8-21.7l14.2-3.1c11.7-2.5,22.1-9.4,28.9-19.2,3.1-4.5,6.7-9.5,10.2-14.5l8.2-12c3.8-5.6,9.8-9.3,16.5-10.2l13.5-1.9c.7,0,1.4-.2,2.1-.4l19.9-4.6c4.3-1,8.2-3.1,11.4-6.2l4.7-4.6c3.7-3.6,8.2-6.3,13.2-7.9l6.8-2.2c8.1-2.5,15.7-6.1,22.9-10.7l27.5-17.7c6.3-4,11.8-9.2,16.2-15.3l9.4-12.9c2.1-2.9,5.4-4.6,9-4.6h11"/>
        <path class="st3" d="M41.4,293.4l2,17.6c.5,4.1,1.1,8.2,2,12.3,1,4.4,1.5,9,1.5,13.5v24.7c0,9.9-3.3,19.5-9.4,27.3l-6.2,7.9c-5.2,6.6-9,14.2-11.2,22.3l-6.9,24.5s-4,12.3-4.3,26.7"/>
        <path class="st9" d="M452.7,277.6l-35.1-6c-17-2.9-34.4-2.6-51.4.9h0c-16.3,3.3-33,3.8-49.5,1.2l-11.3-1.8c-6.4-1-12.5-3.3-17.9-6.8l-29-18.8c-3.4-2.2-4.6-6.6-2.9-10.2h0c1.3-2.6,1-5.8-.7-8.2l-5.2-7.3c-1.4-2-1.9-4.4-1.2-6.7l1.9-7.3c.7-2.6,0-5.3-1.7-7.3l-6.8-7.8c-1.6-1.9-2.3-4.4-1.8-6.8l4.8-24.3c.9-4.3,3.2-8.2,6.6-11.1l14.7-12.2c1-.8,2.2-1.4,3.5-1.8l3.3-.9c2.2-.6,4-2,5.1-3.9l7.3-13.4c14.1-26,31.5-50.1,51.6-71.7l23.9-25.7c11-11.8,22.6-23,34.8-33.5l26.6-22.9c15.1-13,32.5-23.3,51.2-30.2h0c6-2.2,12.2-3.4,18.6-3.7h0c13.6-.5,27,3.7,38,11.9l9,6.7c2.9,2.2,5.6,4.6,8.1,7.3l11.8,12.8c12.6,13.6,24.1,28.2,34.5,43.7l48.7,72.5c35.8,47.8,36.3,57,47.6,106.1l11.1,42.9c2,7.7,6.6,14.5,13,19.2l15.9,11.7c3.6,2.7,6.7,6.1,9.1,9.9l22.8,37.7c8.4,13.8,11.7,30.1,9.4,46l-9.3,65.5c-2.9,20.7.4,41.8,9.6,60.6l2.8,5.7c9.5,19.5,24.9,35.5,43.9,45.8l65.2,35.4"/>
        <path class="st3" d="M61.4,75.3L235.9-41.6c23.1-15.5,45.2-32.3,66.3-50.5l66.2-57.2,30.4-25.1c18.6-15.3,40.7-25.7,64.4-30.1h0c12.3-2.3,24.9-3,37.4-2l37.6,3"/>
        <path class="st3" d="M443.4-275.8l35.9,83.9c5.1,11.9,8.8,24.3,11.1,37.1l10.3,58.5c.8,4.6,0,9.4-2.2,13.6l-4,7.4c-1.7,3.1-2.2,6.7-1.5,10.1l3.9,19c1.6,7.7,4.5,15.1,8.5,21.9l5.5,9.1c2,3.4,1,7.7-2.2,9.9l-21.2,13.9c-3.3,2.2-4.3,6.5-2.2,9.9l59.9,98.4c1.1,1.8,2.9,3.1,5,3.4l334.7,55.1"/>
        <path class="st3" d="M696.6-277.7l25,120.6c1.7,8.3,2.6,16.8,2.8,25.3l4.4,313.5c.2,12.6-1.4,25.2-4.8,37.4l-6.1,22.2c-6.4,23.2-6.4,47.7,0,70.8h0l4.3,14.8c1.9,6.6,2,13.6.2,20.3l-4.2,15.6h0c-8.1,12.7-11,28-8.1,42.8l2.1,10.3c1.2,5.8.6,11.8-1.6,17.3l-4.7,11.6-40.8,95.9c-3.4,8-5.9,16.4-7.3,24.9h0c-1.5,8.5-5.7,16.3-12.1,22.2l-27.1,25.2"/>
        <path class="st3" d="M621.9,132.2l20.9,20.6c6.1,6,13.9,10,22.3,11.5l212.4,36.9"/>
        <line class="st3" x1="494.3" y1="4.2" x2="566.3" y2="123"/>
        <path class="st3" d="M26.7,307l.9-.4c3.7-1.7,8.1-1.2,11.4,1.2h0c1.4,1,2.6,2.4,3.4,3.9l.4.8c.6,1.1,1,2.3,1.2,3.5l.9,5.3"/>
        <path class="st3" d="M54.4,274.8l4.6-10c3.1-6.7,7.8-12.4,13.9-16.6h0c6.6-4.6,14.5-7.2,22.5-7.5l11.2-.3c2.4,0,4.7-.3,7.1-.8l9-1.8c2.5-.5,5-1.3,7.4-2.2l10.9-4.5"/>
        <path class="st3" d="M649.5,158.2l-.7,16.3c-.3,6.9-2.4,13.5-6,19.4l-9.3,15c-3.5,5.7-5.2,12.4-4.7,19.1l2,27.8c.3,4,1.3,8,2.9,11.7h0c1.8,4.1,2.8,8.5,2.9,12.9l.4,11.2c.2,4.2-.4,8.4-1.7,12.4l-2.7,8.4c-1,3-.9,6.3.2,9.3l5.4,14.8c.5,1.4,1.2,2.7,2.1,3.9l4.7,6,28.2,42.7,9.7,14.1c2.4,3.4,3.7,7.5,3.7,11.7v3.1c0,3-.6,5.9-1.9,8.6h0c-3,6.6-2.4,14.2,1.7,20.2l1.5,2.2c2.6,3.9,3.9,8.5,3.5,13.2l-1.7,21"/>
      </g>
      <g id="Rail">
        <g>
          <path class="st8" d="M493.5,618.6l21.5-52.1c2.8-6.9,8.2-12.3,15-15.2l19.7-8.3c7.3-3.1,14.1-7.3,20.2-12.5l55.2-47.1c6.5-5.5,11.1-12.9,13.2-21.1l7.2-28.4c1.5-5.7,1.7-11.6.6-17.4l-7.3-40.8c-1.2-6.8,0-13.7,3.7-19.6l33.5-55c3.4-5.5,4.5-12,3.1-18.4-1.9-8.9-8.6-16.1-17.3-18.8l-4.9-1.5c-7.5-2.3-14.4-6.5-19.8-12.3l-35.2-37.7c-5-5.4-8.2-12-9.2-19.3l-9.9-70.7c-.5-4-1.9-7.7-3.9-11.1l-58.2-97c-2.2-3.7-5.3-7-9-9.4l-23.1-15.4c-4.4-3-7.9-7.1-10.1-11.9l-24.2-54.2"/>
          <path class="st8" d="M451.8-77l-92.1,34.9c-4.7,1.8-8.7,4.9-11.5,9l-12,17.2c-.9,1.3-2,2.6-3.1,3.7l-40.9,41c-3.3,3.3-5.6,7.5-6.7,12.1l-6.2,27.7c-1.1,4.8-2.7,9.4-4.8,13.8l-22,46.2c-.6,1.4-1.2,2.8-1.6,4.2l-10.6,39.1c-1.8,6.8-6.1,12.6-12.1,16.3l-41.6,26.2-52.8,35.3c-8.4,5.6-17.7,9.7-27.5,12.2l-28.9,7.2c-5.1,1.3-9.6,4.1-13,8.1l-4,4.8c-3.8,4.5-5.8,10.1-5.8,16v67.9c0,6.3-2.2,12.5-6.1,17.4l-10.3,12.9c-4.9,6.2-8.7,13.1-11.2,20.6l-10.7,32c-.5,1.5-.9,3.1-1.1,4.6l-4.2,31.7c-2.4,18.8,0,37.9,7.4,55.4l29.4,70.5"/>
        </g>
        <path class="st16" d="M285.6,40.8c.9,0,1.7-.8,1.7-1.7s-.8-1.7-1.7-1.7-1.7.8-1.7,1.7.8,1.7,1.7,1.7"/>
        <path class="st16" d="M112.4,262.3c.9,0,1.7-.8,1.7-1.7s-.8-1.7-1.7-1.7-1.7.8-1.7,1.7.8,1.7,1.7,1.7"/>
        <path class="st16" d="M243,165.4c.9,0,1.7-.8,1.7-1.7s-.8-1.7-1.7-1.7-1.7.8-1.7,1.7.8,1.7,1.7,1.7"/>
      </g>
      <g id="Street_Names">
        <rect class="st0" x="217.12" y="227.69" width="18.4" height="2.4" transform="translate(-48.07 60.59) rotate(-13.8)"/>
        <g class="st15">
          <g class="st15">
            <path class="st13" d="M220.7,229.2l.3,1.2c.1.5-.2.8-.6.9-.5.1-.7-.1-.9-.3l.2-.2c.1.1.3.3.6.2.3,0,.5-.3.4-.6l-.3-1.2h.3Z"/>
          </g>
          <g class="st15">
            <path class="st13" d="M221.9,229.4c.4-.1.8.1.9.5.1.4-.1.8-.6.9-.4.1-.8-.1-.9-.5,0-.4.1-.8.6-.9ZM222.2,230.6c.3,0,.4-.4.4-.7s-.3-.5-.6-.4c-.3,0-.4.4-.4.7s.3.5.6.4Z"/>
            <path class="st13" d="M224.2,229.2h-.6c-.2,0-.3.1-.3.3s.3.1.4,0c.2,0,.7-.1.7.3,0,.3-.2.5-.5.6h-.7v-.2c.2,0,.4.1.7,0,.2,0,.4-.2.4-.3,0-.2-.3-.1-.5-.1-.3,0-.6.1-.7-.2,0-.3.2-.5.5-.6h.7v.2h-.1,0Z"/>
            <path class="st13" d="M225.1,230.1l-.5-2h.2l.5,2h-.2Z"/>
            <path class="st13" d="M225.5,227.9s.2,0,.2.1c0,0,0,.2-.1.2,0,0-.2,0-.2-.1,0,0,0-.2.1-.2ZM225.9,229.9l-.3-1.4h.2l.3,1.3h-.2v.1h0Z"/>
            <path class="st13" d="M226.6,229.7l-.3-1c0-.1,0-.2-.1-.3h.2v.1c0-.2.2-.3.4-.4.3,0,.6,0,.6.4l.2.9h-.2l-.2-.9c0-.2-.2-.2-.4-.2s-.3.2-.4.3l.2,1h-.2l.2.1h0Z"/>
            <path class="st13" d="M229.4,228.9c-.1.2-.2.3-.4.3-.4,0-.8-.1-.9-.6-.1-.4.1-.8.5-.9.2,0,.5,0,.5.1v-.2h.2v.3l.3,1.1c0,.3,0,.6-.5.7h-.7v-.2c.2,0,.4.1.6,0,.3,0,.4-.3.4-.5v-.3.2h0ZM229.4,228.7l-.2-.6s-.3-.2-.5-.1c-.3,0-.4.3-.3.6,0,.3.3.5.6.4.2,0,.3-.2.4-.3h0Z"/>
          </g>
          <g class="st15">
            <path class="st13" d="M231.9,226.8c-.1,0-.4-.1-.8,0-.2,0-.5.2-.4.4,0,.2.4.2.7.1.3,0,.9-.2,1,.4.1.4-.2.7-.7.8s-.8,0-1.1-.1v-.2c.3.1.6.2,1.1.1.3,0,.6-.3.5-.5,0-.3-.4-.3-.7-.2-.4,0-.9.2-1-.3-.1-.4.3-.7.6-.8h.9v.2l-.1.1Z"/>
          </g>
          <g class="st15">
            <path class="st13" d="M232.5,226.8h.3l-.1-.5h.2l.1.4h.4c0-.1,0,0,0,0h-.4c0,.1.2,1,.2,1,0,.1.1.2.2.1h.2v.2s-.1.1-.2.1c-.2,0-.4,0-.5-.3l-.2-.8h-.3v-.1l.1-.1h0Z"/>
          </g>
        </g>
        <rect class="st0" x="269.05" y="108.25" width="2.4" height="16.4" transform="translate(71.39 333.37) rotate(-70.8)"/>
        <g class="st15">
          <g class="st15">
            <path class="st13" d="M265.3,114.2c0-.1-.3-.4-.6-.5-.2,0-.5,0-.6.2,0,.2.2.4.5.5s.8.3.7.8c-.2.4-.6.5-1,.3-.5-.2-.7-.5-.8-.7h.2c.1,0,.3.4.7.5.3.1.6,0,.7-.2,0-.3-.2-.4-.5-.6-.4-.2-.8-.4-.7-.8.1-.4.6-.4.9-.3.4.1.6.4.7.6h-.2v.2h0Z"/>
          </g>
          <g class="st15">
            <path class="st13" d="M267.1,115l-1.6,1.6h-.2l.6-.6v-1.5c-.1,0,.1,0,.1,0v1.2h0l.8-.9h.2s.1.2.1.2Z"/>
            <path class="st13" d="M267,116.4l.7-2h.2l-.7,2.1h-.2v-.1Z"/>
            <path class="st13" d="M269.5,115.8l-1.1,1.1h-.2l-.1-1.6h.3v1.3h0l.8-.9h.2l.1.1h0Z"/>
            <path class="st13" d="M269.8,116h.7c.3.1.6.3.5.6l-.3.7v.3h-.2v-.3c-.1,0-.4.1-.6,0-.3-.1-.5-.4-.4-.6,0-.2.4-.4.8-.2.2,0,.4.2.4.3v-.2c.1-.2,0-.3-.2-.4h-.6v-.2h-.1,0ZM270.5,117.2v-.2c0-.1-.1-.2-.3-.3-.3-.1-.5,0-.5.1s0,.3.3.4h.6-.1Z"/>
            <path class="st13" d="M271.1,117.8l.3-1v-.4h.2v.3c.2,0,.3-.2.6,0,.3.1.4.4.3.6l-.3.9h-.2l.3-1c0-.2,0-.3-.2-.4h-.5l-.3.9h-.2v.1h0Z"/>
          </g>
          <g class="st15">
            <path class="st13" d="M273.5,118.7l.6-1.9,1,.4c.2,0,.4.2.5.4v.4c0,.2-.3.4-.6.4l.2.9h-.3l-.2-1-.8-.3-.3.8h-.2l.1-.1h0ZM274.3,117.1l-.2.7.8.3c.2,0,.4,0,.5-.2v-.2c0-.1-.2-.2-.3-.2l-.8-.3v-.1Z"/>
          </g>
          <g class="st15">
            <path class="st13" d="M276.6,119.8v-.2s-.3.2-.6,0c-.4-.1-.6-.5-.4-.9.1-.4.6-.6.9-.5.2,0,.3.2.4.4l.3-.8h.2l-.6,1.7v.3h-.2,0ZM276,118.8c-.1.3,0,.6.3.7h.5l.2-.6c0-.2-.2-.3-.4-.4-.2,0-.5,0-.6.4v-.1Z"/>
          </g>
        </g>
        <rect class="st0" x="233.96" y="32.86" width="16.4" height="3" transform="translate(36.85 167.3) rotate(-41)"/>
        <g class="st15">
          <g class="st15">
            <path class="st13" d="M239.2,38.5l-1-1.1h0l.2,1.4h0l-1.3-.4h0l1,1.1-.2.2-1.3-1.5.2-.2,1.4.5h0l-.3-1.4.2-.2,1.3,1.5-.2.2v-.1h0Z"/>
          </g>
          <g class="st15">
            <path class="st13" d="M238.6,36.2h.2v.2h-.2v-.2ZM239.9,37.9l-.9-1.1.2-.2.9,1.1-.2.2Z"/>
            <path class="st13" d="M240.5,37.4l-1.4-1.6.2-.2,1.4,1.6-.2.2Z"/>
            <path class="st13" d="M240.1,35.9l.2-.2-.3-.3.2-.2.3.3.3-.3h.1c0,.1-.3.4-.3.4l.6.7h.3s.1-.1.1-.2h.1c0,.2-.1.3-.2.4-.1.1-.4.2-.6,0l-.6-.7-.2.2h-.1l.1-.1h0Z"/>
            <path class="st13" d="M241.5,34.5c.3-.3.8-.2,1.1,0,.3.3.3.8,0,1.1s-.8.2-1.1,0c-.3-.3-.3-.8,0-1.1ZM242.4,35.5c.2-.2.2-.5,0-.8-.2-.2-.5-.3-.7,0-.2.2-.2.5,0,.7s.5.3.7,0v.1Z"/>
            <path class="st13" d="M243.4,34.8l-.7-.8s-.2-.2-.3-.2h.2c0-.1.1,0,.2,0,0-.2,0-.4.2-.5.2-.2.5-.2.7,0l.6.7-.2.2-.6-.7c-.1-.1-.3-.1-.4,0-.2.1-.2.3-.2.5l.7.8-.2.2v-.2Z"/>
          </g>
          <g class="st15">
            <path class="st13" d="M245.4,33.1l-1.3-1.5.8-.7c.2-.2.4-.2.5-.2s.3,0,.4.2c.2.2.2.5,0,.7l.9.3-.2.2-.9-.3-.6.5.5.6-.2.2h.1ZM244.4,31.7l.5.5.7-.6c.2-.1.2-.4,0-.5,0,0-.1-.1-.2-.1s-.2,0-.3.1l-.6.5-.1.1h0Z"/>
          </g>
          <g class="st15">
            <path class="st13" d="M247.9,31s-.1,0-.2-.1c0,.1,0,.4-.2.5-.3.3-.7.2-1-.1-.3-.3-.2-.8,0-1,.1-.1.3-.2.5-.2l-.6-.6.2-.2,1.1,1.3s.2.2.3.3h-.2l.1.1h0ZM246.7,31.1c.2.2.5.3.7.1.2-.2.2-.4.2-.5l-.4-.5c-.2,0-.4,0-.5.1-.2.2-.2.5,0,.7,0,0,0,.1,0,.1Z"/>
          </g>
        </g>
        <rect class="st0" x="135.17" y="56.43" width="2.6" height="16.5" transform="translate(53.65 190.96) rotate(-82.1)"/>
        <g class="st15">
          <g class="st15">
            <path class="st13" d="M131.3,65l.2-1.5h0l-.9,1.1h0l-.5-1.3h0l-.2,1.5h-.2l.3-2h.3l.6,1.4h0l.9-1.1h.3l-.3,2h-.3l-.2-.1h0Z"/>
          </g>
          <g class="st15">
            <path class="st13" d="M132.1,65.1l.2-1.4h.2l-.2,1.4h-.2ZM132.5,63.1s.1,0,.1.2c0,0,0,.1-.2.1,0,0-.1,0-.1-.2,0,0,0-.1.2-.1Z"/>
            <path class="st13" d="M132.9,65.2l.3-2.1h.2l-.3,2.1h-.2Z"/>
            <path class="st13" d="M133.8,63.9h.3v-.4h.2v.5h.4v.2h-.4l-.1.8c0,.1,0,.2.2.2h.2v.2h-.3c-.2,0-.4-.2-.3-.4v-.9c.1,0-.2,0-.2,0v-.2h0Z"/>
            <path class="st13" d="M135.7,64.1c.4,0,.7.4.6.8,0,.4-.4.7-.9.6-.4,0-.7-.4-.6-.8,0-.4.4-.7.8-.6h.1,0ZM135.6,65.4c.3,0,.5-.2.6-.5,0-.3-.1-.6-.4-.6s-.5.2-.6.5c0,.3.1.6.4.6Z"/>
            <path class="st13" d="M136.7,65.7v-1c.2-.1.2-.2.2-.4h.2v.2c.1-.1.3-.2.6-.2s.5.3.5.6v.9h-.4v-.9c.2-.2,0-.3-.2-.3s-.4,0-.5.2v1h-.4v-.1h0Z"/>
          </g>
          <g class="st15">
            <path class="st13" d="M139.3,66.1l.3-1.9h1.1c.2.2.4.3.5.4,0,.1.1.3,0,.4,0,.3-.2.4-.5.5l.4.9h-.3l-.3-.9h-.8c0-.1-.1.7-.1.7h-.3v-.1h0ZM139.8,64.4v.7l.8.1c.2,0,.4-.1.4-.3v-.2c0-.1-.2-.1-.3-.2h-.8l-.1-.1h0Z"/>
          </g>
          <g class="st15">
            <path class="st13" d="M142.6,66.5v-.2s-.3.2-.5.2c-.4,0-.7-.4-.6-.8,0-.4.4-.7.8-.6.2,0,.3.1.4.3v-.9h.4l-.2,1.7v.4h-.2l-.1-.1h0ZM141.7,65.7c0,.3.1.6.4.6.2,0,.4,0,.5-.2v-.6c0-.1-.2-.3-.3-.3-.3,0-.5.1-.5.5h-.1,0Z"/>
          </g>
        </g>
        <rect class="st0" x="226.6" y="272.35" width="16.6" height="2.6" transform="translate(-120.54 334.67) rotate(-59.1)"/>
        <g class="st15">
          <g class="st15">
            <path class="st13" d="M231.9,277.8c-.2,0-.5.3-.6.5-.2.4-.1.9.3,1.1.4.2.8.1,1.1-.3.1-.2.2-.5.2-.6l-.4-.2-.3.5h-.2c0-.1.4-.9.4-.9l.7.4c0,.3,0,.6-.2.9-.3.5-1,.7-1.4.4-.5-.3-.6-.9-.3-1.5.2-.3.4-.5.7-.6v.3h0Z"/>
            <path class="st13" d="M232.5,277.3c0-.1,0-.4.2-.7.2-.3.4-.5.7-.3l.7.4h.2v.2h-.3c0,.1,0,.4-.1.6-.2.3-.5.4-.7.2-.2-.1-.3-.4,0-.8,0-.1.2-.3.4-.4h-.2c-.2-.2-.3,0-.4,0-.1.2-.1.4-.1.6h-.2l-.2.2h0ZM233.8,276.9h-.2c-.1,0-.3,0-.4.2-.2.3-.1.4,0,.5.1,0,.3,0,.4-.2.2-.3,0-.5,0-.6l.2.1Z"/>
            <path class="st13" d="M232.8,275.3s.1-.1.2,0v.2s-.1.1-.2,0v-.2ZM234.5,276.4l-1.2-.7v-.2c.1,0,1.3.7,1.3.7v.2h-.1Z"/>
            <path class="st13" d="M234.9,275.7l-1.8-1.1v-.2c.1,0,1.9,1.1,1.9,1.1v.2h-.1,0Z"/>
            <path class="st13" d="M235.8,273.8c0,.2,0,.5-.1.7-.2.4-.7.5-1,.2-.4-.2-.5-.7-.3-1s.5-.5,1-.2h0l-.6,1c.2.1.5,0,.7-.2.1-.2.1-.4,0-.5h.3ZM234.7,274.4l.5-.8c-.2-.1-.5,0-.6.2s0,.5,0,.6h.1Z"/>
            <path class="st13" d="M235.7,271.6l1.2,1.9v.2c-.1,0-.5-.7-.5-.7l-1.5-.2v-.2c.1,0,1.3.2,1.3.2h0l-.7-1v-.2h.2Z"/>
          </g>
          <g class="st15">
            <path class="st13" d="M237.5,271.4l-1.7-1,.6-.9c.1-.2.3-.3.5-.4h.4c.2.1.3.4.2.7h1l-.2.3h-.9l-.4.7.7.4v.2h-.2ZM236.2,270.3l.6.4.5-.8c.1-.2,0-.4-.1-.5h-.2c-.1,0-.2.1-.3.2l-.4.7h-.1Z"/>
          </g>
          <g class="st15">
            <path class="st13" d="M239.2,268.5h-.2v.6c-.2.3-.6.5-1,.2-.4-.2-.5-.7-.3-1,0-.1.2-.3.4-.3l-.7-.4v-.2c.1,0,1.6.9,1.6.9,0,0,.2.1.3.2v.2l-.1-.2h0ZM238.1,269c.3.2.6,0,.7-.1.1-.2,0-.4,0-.5l-.5-.3c-.2,0-.3.1-.4.3s0,.5.2.7v-.1Z"/>
          </g>
        </g>
        <rect class="st0" x="259.77" y="277.22" width="4.9" height="23.7" transform="translate(-28.22 549.77) rotate(-89.7)"/>
        <g class="st15">
          <g class="st15">
            <path class="st22" d="M254.5,288.5c-.2-.1-.5-.3-.9-.3-.3,0-.5,0-.5.3,0,.2.4.3.7.3.5,0,1.3,0,1.2.8,0,.7-.6.9-1.2.9-.7,0-1.2-.3-1.5-.5l.3-.4c.2.2.6.5,1.1.5.3,0,.6-.1.6-.4s-.3-.3-.7-.4c-.6,0-1.3-.1-1.3-.8,0-.6.6-.8,1.1-.8.6,0,1,.2,1.3.4l-.3.4h.1,0Z"/>
            <path class="st22" d="M255.3,287.8h2.5v.5h-1v2.2h-.6v-2.2h-1v-.5h.1Z"/>
          </g>
          <g class="st15">
            <path class="st22" d="M259.8,287.8v2.2h1.6v.5h-2.2v-2.7h.6Z"/>
          </g>
          <g class="st15">
            <path class="st22" d="M264.3,287.8v1.7c0,.7-.5,1-1.2,1s-1.2-.4-1.2-1.1v-1.7h.6v1.7c0,.4.3.5.6.5.4,0,.6-.2.6-.5v-1.7h.6v.1Z"/>
            <path class="st22" d="M267.7,290.1c-.3.3-.8.5-1.4.5-.9,0-1.5-.6-1.5-1.4s.6-1.4,1.5-1.4c.5,0,1,.2,1.3.5l-.4.4c-.2-.2-.6-.3-.9-.4-.5,0-.9.4-.9.9s.4.9.9.9c.4,0,.7-.2.9-.4l.4.4h.1Z"/>
            <path class="st22" d="M268.2,290.5v-2.7h.6v2.7h-.6Z"/>
            <path class="st22" d="M270.5,287.9h.5l1.2,2.7h-.6l-.2-.6h-1.2l-.2.6h-.6l1.3-2.7h-.2,0ZM270.3,289.5h.8l-.4-.9h0l-.4.9Z"/>
          </g>
        </g>
        <rect class="st0" x="167.89" y="162.83" width="4.9" height="29.1" transform="translate(-7.93 346.79) rotate(-89.7)"/>
        <g class="st15">
          <g class="st15">
            <path class="st22" d="M158.7,176.1h2.5v.5h-1v2.2h-.6v-2.2h-1v-.5h.1Z"/>
          </g>
          <g class="st15">
            <path class="st22" d="M163,176.1c.8,0,1.5.6,1.5,1.4s-.7,1.4-1.5,1.4-1.5-.6-1.5-1.4.7-1.4,1.5-1.4ZM163,178.4c.5,0,.9-.4.9-.9s-.4-.9-.9-.9-.9.4-.9.9.4.9.9.9Z"/>
          </g>
          <g class="st15">
            <path class="st22" d="M166.4,176.1c.8,0,1.5.6,1.5,1.4s-.7,1.4-1.5,1.4-1.5-.6-1.5-1.4.7-1.4,1.5-1.4ZM166.4,178.4c.5,0,.9-.4.9-.9s-.4-.9-.9-.9-.9.4-.9.9.4.9.9.9Z"/>
            <path class="st22" d="M168.8,176.2l.5,1.8h0l.6-1.8h.4l.5,1.8h0l.5-1.8h.6l-.9,2.7h-.6l-.5-1.6h0l-.5,1.6h-.6l-.8-2.7h.8Z"/>
          </g>
          <g class="st15">
            <path class="st22" d="M173.9,176.1c.8,0,1.5.6,1.5,1.4s-.7,1.4-1.5,1.4-1.5-.6-1.5-1.4.7-1.4,1.5-1.4ZM173.8,178.5c.5,0,.9-.4.9-.9s-.4-.9-.9-.9-.9.4-.9.9.4.9.9.9Z"/>
            <path class="st22" d="M178.5,176.2v2.7h-.5l-1.4-1.7h0v1.7h-.6v-2.7h.5l1.4,1.7h0v-1.7h.6Z"/>
            <path class="st22" d="M181.4,177c-.2-.2-.6-.3-.9-.3-.5,0-.9.4-.9.9s.3.9.9.9c.2,0,.5,0,.7-.2v-.5h-.8v-.5h1.4v1.2c-.4.3-.8.4-1.3.4-.9,0-1.5-.6-1.5-1.4s.7-1.4,1.5-1.4c.4,0,.9.2,1.3.5l-.4.4h0Z"/>
          </g>
        </g>
        <rect class="st0" x="322.45" y="136.46" width="3.6" height="35.9" transform="translate(168.14 477.85) rotate(-89.7)"/>
        <g class="st15">
          <g class="st15">
            <path class="st22" d="M313.4,153.1l.5,1.8h0l.6-1.8h.4l.5,1.8h0l.5-1.8h.6l-.9,2.7h-.6l-.5-1.6h0l-.5,1.6h-.6l-.8-2.7h.8Z"/>
            <path class="st22" d="M318.7,154.7h-1v.6h1.7v.5h-2.3v-2.7h2.2v.5h-1.6v.5h1v.6h0Z"/>
            <path class="st22" d="M322,153.8c-.2-.1-.5-.3-.9-.3-.3,0-.5,0-.5.3,0,.2.4.3.7.3.5,0,1.3,0,1.2.8,0,.7-.6.9-1.2.9-.7,0-1.2-.3-1.5-.5l.3-.4c.2.2.6.5,1.1.5.3,0,.6-.1.6-.4s-.3-.3-.7-.4c-.6,0-1.3-.1-1.3-.8,0-.6.6-.8,1.1-.8.6,0,1,.2,1.3.4l-.3.4h.1,0Z"/>
            <path class="st22" d="M322.8,153.1h2.5v.5h-1v2.2h-.6v-2.2h-1v-.5h.1Z"/>
            <path class="st22" d="M328.3,154.7h-1v.6h1.7v.5h-2.3v-2.7h2.2v.5h-1.6v.5h1v.6h0Z"/>
            <path class="st22" d="M332.1,153.2v2.7h-.5l-1.4-1.7h0v1.7h-.6v-2.7h.5l1.4,1.7h0v-1.7h.6Z"/>
            <path class="st22" d="M333,155.9v-2.7h1.3c.5,0,.8.1,1,.4.2.2.4.6.4,1s-.1.7-.4,1c-.2.2-.5.3-1,.3h-1.3ZM334.2,155.4c.3,0,.4,0,.6-.2s.2-.4.2-.6c0-.3,0-.5-.2-.6-.1-.1-.3-.2-.6-.2h-.7v1.7h.7v-.1h0Z"/>
          </g>
        </g>
        <rect class="st0" x="120.56" y="293.66" width="2.2" height="19.4" transform="translate(-196.86 376.62) rotate(-81.1)"/>
        <g class="st15">
          <g class="st15">
            <path class="st13" d="M116.1,301.7c-.1-.1-.3-.3-.7-.4-.2,0-.5,0-.6.3,0,.2.3.3.6.4.3,0,.9.2.8.7,0,.5-.5.6-1,.5-.5,0-.8-.3-1-.6l.2-.2c.1.2.4.4.8.5.3,0,.6,0,.7-.3,0-.3-.2-.4-.6-.5-.4,0-.9-.2-.8-.6,0-.4.5-.5.9-.5s.7.3.8.4l-.2.2s.1.1.1.1Z"/>
          </g>
          <g class="st15">
            <path class="st13" d="M118.7,302.2l-.7,1.3h-.2l-.2-1.1h0l-.5,1h-.2l-.2-1.5h.3l.2,1.2h0l.5-1h.2l.2,1.2h0l.5-1h.3l-.2-.1h0Z"/>
            <path class="st13" d="M119,302.4c.1,0,.4-.1.7,0,.3,0,.6.2.6.5v.8c-.1,0-.1.2-.1.3h-.2v-.2c-.1,0-.3.2-.6.1-.3,0-.5-.3-.5-.6,0-.2.3-.4.7-.4.2,0,.4.1.5.2v-.2c0-.2-.1-.3-.3-.3h-.6v-.2h-.2ZM119.9,303.4v-.2c0-.1-.2-.2-.4-.2-.3,0-.5,0-.5.2s0,.3.3.3.5-.1.6-.1h0Z"/>
            <path class="st13" d="M120.6,303.9l.2-1v-.4h.2v.3c.1-.1.3-.2.6-.2s.5.3.5.6v.9h-.4v-.9c.2-.2,0-.3-.1-.3-.2,0-.4,0-.5.2l-.2,1h-.2l-.1-.2Z"/>
            <path class="st13" d="M122.4,304.2l.2-1v-.4h.2v.3c.1-.1.3-.2.6-.2s.5.3.5.6v.9h-.4v-.9c.2-.2,0-.3-.1-.3-.2,0-.4,0-.5.2l-.2,1h-.2l-.1-.2Z"/>
          </g>
          <g class="st15">
            <path class="st13" d="M125,304.6l.3-1.9,1.1.2c.2,0,.4.1.5.3,0,.1.1.3,0,.4,0,.3-.3.4-.5.5l.3.9h-.3l-.3-.9h-.8c0-.1-.1.7-.1.7h-.3s.1-.2.1-.2ZM125.5,302.9v.7c-.1,0,.8.1.8.1.2,0,.4,0,.4-.3v-.2c0-.1-.2-.2-.3-.2h-.8l-.1-.1Z"/>
          </g>
          <g class="st15">
            <path class="st13" d="M128.2,305.1v-.2s-.3.2-.5.2c-.4,0-.7-.4-.6-.8,0-.4.4-.7.8-.6.2,0,.3.1.4.3v-.8h.4l-.3,1.7v.4h-.2v-.2ZM127.4,304.3c0,.3.1.6.4.6.2,0,.4,0,.5-.1v-.6c0-.2-.2-.3-.3-.3-.3,0-.5.1-.5.5l-.1-.1Z"/>
          </g>
        </g>
        <rect class="st0" x="132.93" y="103.07" width="18" height="2.4" transform="translate(16.53 227.92) rotate(-80.9)"/>
        <g class="st15">
          <g class="st15">
            <path class="st13" d="M142.2,109l-1.5-.2h0l1.1.9h0l-1.3.6h0l1.5.2v.2l-2-.3v-.3l1.4-.5h0l-1.1-.9v-.3l2,.3v.3h-.1,0Z"/>
          </g>
          <g class="st15">
            <path class="st13" d="M140.4,107.7s0-.1.2-.1c0,0,.1,0,.1.2,0,0,0,.1-.2.1,0,0-.1,0-.1-.2ZM142.4,108.1l-1.4-.2v-.2l1.4.2v.2Z"/>
            <path class="st13" d="M141.6,106.2s-.2.3-.2.5,0,.3.2.4c.2,0,.2-.2.3-.4,0-.2.1-.7.5-.6.3,0,.4.4.4.7s-.2.5-.3.6h-.2c.1-.2.2-.4.3-.7,0-.2,0-.4-.2-.5-.2,0-.2.2-.3.4,0,.3-.1.6-.5.6-.3,0-.4-.4-.3-.6,0-.3.2-.5.3-.6h.2l-.2.2Z"/>
            <path class="st13" d="M141.6,104.2l.4.6,1-.5v.3l-.9.4.2.3h.5v.3l-2.1-.3v-.2l1.4.2-.6-.8v-.3h.1Z"/>
            <path class="st13" d="M141,103.6s0-.1.2-.1c0,0,.1,0,.1.2,0,0,0,.1-.2.1,0,0-.1,0-.1-.2ZM143,104.1l-1.4-.2v-.2l1.4.2v.2Z"/>
            <path class="st13" d="M143.2,103.3l-1-.2h-.4v-.2h.3c-.1-.1-.2-.3-.2-.6s.3-.5.6-.5l.9.2v.2l-1-.2c-.2,0-.3,0-.3.3,0,.2,0,.4.2.5l1,.2v.2l-.1.1Z"/>
          </g>
          <g class="st15">
            <path class="st13" d="M142.3,99.1c-.1,0-.3.3-.4.7,0,.2,0,.5.3.6.2,0,.3-.3.4-.6,0-.3.2-.9.7-.8.5,0,.6.5.5,1,0,.5-.3.8-.6,1l-.2-.2c.2-.1.4-.4.5-.8,0-.3,0-.6-.3-.7-.3,0-.4.2-.5.6,0,.4-.2.9-.6.8-.4,0-.5-.5-.5-.9s.3-.7.4-.8l.2.2.1-.1h0Z"/>
          </g>
          <g class="st15">
            <path class="st13" d="M142.5,98.6v-.3h-.4v-.2h.5v-.4h.3v.4l.8.1c.1,0,.2,0,.2-.2v-.2h.2v.3c0,.2-.2.4-.5.3h-.9c0-.1,0,.1,0,.1h-.2v.1h0Z"/>
          </g>
        </g>
        <rect class="st0" x="332.28" y="36.16" width="24.8" height="2.6" transform="translate(83.8 265.82) rotate(-47.4)"/>
        <g class="st15">
          <g class="st15">
            <path class="st13" d="M339.6,43.9c0,.3,0,.7-.3,1-.4.5-1.1.5-1.5,0-.4-.4-.5-1,0-1.5.2-.3.6-.4.9-.4v.2c-.2,0-.5.1-.7.3-.3.3-.3.8,0,1.1s.8.3,1.1,0c.2-.2.3-.5.3-.8h.2v.1Z"/>
          </g>
          <g class="st15">
            <path class="st13" d="M339.5,42.3c.3-.3.8-.3,1.1,0,.3.3.3.7,0,1.1-.3.3-.8.3-1.1,0-.3-.3-.3-.7,0-1.1ZM340.4,43.2c.2-.2.2-.5,0-.7s-.5-.2-.7,0-.2.5,0,.7.5.2.7,0Z"/>
          </g>
          <g class="st15">
            <path class="st13" d="M341.4,42.4l-.8-.7s-.2-.1-.3-.2l.2-.2s.1,0,.2.1v-.5s.1-.1.2-.1v.3c-.1.1,0,.3,0,.4l.7.7-.2.2h0Z"/>
          </g>
          <g class="st15">
            <path class="st13" d="M341.5,40.2c.3-.3.8-.3,1.1,0,.3.3.3.7,0,1.1-.3.3-.8.3-1.1,0-.3-.3-.3-.7,0-1.1ZM342.4,41c.2-.2.2-.5,0-.7s-.5-.2-.7,0-.2.5,0,.7.5.2.7,0Z"/>
            <path class="st13" d="M343.4,40.3l-.8-.7s-.2-.1-.3-.2v-.2c.2,0,.3,0,.3.1,0-.2,0-.4.2-.6.2-.2.5-.3.7,0l.7.6-.2.2-.7-.6c-.1-.1-.3,0-.4,0-.1.2-.1.3-.1.5l.7.7-.2.2h.1,0Z"/>
            <path class="st13" d="M343.6,38.1c0-.1.1-.4.3-.6.2-.2.5-.4.7-.2l.6.5s.1.1.2.1l-.2.2s-.1,0-.2-.1c0,.1,0,.4-.2.6-.2.3-.5.3-.7,0-.2-.2-.2-.5,0-.8.1-.1.3-.3.4-.3h-.1c-.1-.3-.3-.2-.5,0s-.2.4-.2.5h-.2l.1.1h0ZM345,37.9h-.1c-.1-.1-.3,0-.4.1-.2.2-.2.4-.1.5s.3,0,.5,0c.2-.2.2-.5.2-.6h-.1Z"/>
            <path class="st13" d="M344.6,36.8l.2-.2-.3-.3.2-.2.3.3.3-.3h.1c0,.1-.3.4-.3.4l.6.6h.3l.1-.2h.2c0,.2,0,.3-.2.4-.1.1-.3.2-.6,0l-.6-.6-.2.2h-.1v-.1Z"/>
            <path class="st13" d="M345.2,35.3h.2v.2c0,.1-.2,0-.2,0v-.2ZM346.6,36.7l-1-1,.2-.2,1,1-.2.2Z"/>
            <path class="st13" d="M346.5,34.7c.3-.3.8-.3,1.1,0,.3.3.3.7,0,1.1-.3.3-.8.3-1.1,0-.3-.3-.3-.7,0-1.1ZM347.5,35.6c.2-.2.2-.5,0-.7s-.5-.2-.7,0-.2.5,0,.7.5.2.7,0Z"/>
            <path class="st13" d="M348.4,34.8l-.8-.7s-.2-.1-.3-.2v-.2c.2,0,.3,0,.3.1,0-.2,0-.4.2-.6.2-.2.5-.3.7,0l.7.6-.2.2-.7-.6c-.1-.1-.3,0-.4,0-.1.2-.1.3-.1.5l.7.7-.2.2h.1,0Z"/>
          </g>
          <g class="st15">
            <path class="st13" d="M350.1,32.9l-1.4-1.3.6-.6c.2-.3.5-.3.7-.4.2,0,.5,0,.7.3.2.2.3.4.3.7,0,.2,0,.4-.3.7l-.6.6h0ZM350.5,32.1c.2-.2.2-.3.2-.5s-.1-.4-.3-.5c-.2-.1-.4-.2-.5-.2-.2,0-.3,0-.5.3l-.4.4,1.1,1,.4-.4v-.1h0Z"/>
          </g>
          <g class="st15">
            <path class="st13" d="M351.7,31.2l-.8-.7s-.2-.1-.3-.2l.2-.2s.1,0,.2.1v-.5s.1-.1.2-.1v.3c-.1.1,0,.3,0,.4l.7.7-.2.2h0Z"/>
          </g>
        </g>
        <polygon class="st0" points="191.3 156 170.4 152.5 170.8 150.3 191.7 153.8 191.3 156"/>
        <g class="st15">
          <g class="st15">
            <path class="st13" d="M173.1,151.3c0-.1-.3-.3-.7-.4-.2,0-.5,0-.6.2,0,.2.3.3.6.4.3,0,.9.2.8.7,0,.5-.5.6-1,.5-.5,0-.8-.3-1-.6l.2-.2c.1.2.4.4.8.5.3,0,.6,0,.7-.3,0-.3-.2-.4-.6-.5-.4,0-.9-.2-.8-.7,0-.4.5-.5.9-.4.4,0,.7.3.8.4l-.2.2.1.2h0Z"/>
          </g>
          <g class="st15">
            <path class="st13" d="M173.5,152.9l.3-2.1h.2l-.1.9c.1,0,.3-.2.5-.2.3,0,.5.3.5.6l-.2.9h-.2l.2-1c0-.2,0-.3-.3-.3-.2,0-.4,0-.5.2l-.2,1h-.2Z"/>
            <path class="st13" d="M176.6,153.2c-.2.1-.4.2-.7.1-.5,0-.7-.4-.6-.8,0-.4.4-.7.9-.6.3,0,.7.3.6.8h0l-1.2-.2c0,.3.1.5.4.6.2,0,.4,0,.5-.1v.2h.1ZM175.6,152.4l.9.2c0-.3-.2-.4-.4-.5-.2,0-.4,0-.5.3Z"/>
            <path class="st13" d="M177.1,153.5l.2-1v-.4h.2v.3c.1-.1.3-.2.5-.2,0,0,.2,0,.2.1v.2h-.3c-.2,0-.3,0-.4.2l-.2.9h-.2v-.1Z"/>
            <path class="st13" d="M180.4,152.6l-.7,1.3h-.2l-.1-1.1h0l-.5,1h-.2l-.2-1.5h.3l.1,1.2h0l.5-1h.2l.2,1.2h0l.5-1h.3l-.2-.1h0Z"/>
            <path class="st13" d="M181.4,152.8c.4,0,.7.5.6.9,0,.4-.4.7-.9.6-.4,0-.7-.5-.6-.9,0-.4.4-.7.9-.6ZM181.2,154c.3,0,.5-.2.6-.5,0-.3-.1-.6-.4-.6s-.5.2-.6.5c0,.3.1.6.4.6Z"/>
            <path class="st13" d="M183.2,153.1c.4,0,.7.5.6.9,0,.4-.4.7-.9.6-.4,0-.7-.5-.6-.9,0-.4.4-.7.9-.6ZM183,154.3c.3,0,.5-.2.6-.5,0-.3-.1-.6-.4-.6s-.5.2-.6.5c0,.3.1.6.4.6Z"/>
            <path class="st13" d="M185.3,154.9v-.2s-.3.2-.5.2c-.4,0-.7-.4-.6-.9,0-.4.4-.7.8-.6.2,0,.3.1.4.3v-.8h.4l-.3,1.7v.4h-.2v-.1h0ZM184.5,154c0,.3.1.6.4.6.2,0,.4,0,.5-.1v-.6c0-.2-.2-.3-.3-.3-.3,0-.5.1-.5.5l-.1-.1h0Z"/>
          </g>
          <g class="st15">
            <path class="st13" d="M186.8,155.1l.3-1.9,1.1.2c.2,0,.4.1.5.3,0,.1.1.3,0,.4,0,.3-.3.4-.5.5l.3.9h-.3l-.3-.9h-.8c0-.1-.1.7-.1.7h-.3l.1-.2ZM187.3,153.5v.7c-.1,0,.8.1.8.1.2,0,.4,0,.4-.3v-.2c0-.1-.2-.2-.3-.2h-.8l-.1-.1h0Z"/>
          </g>
          <g class="st15">
            <path class="st13" d="M190.1,155.7v-.2s-.3.2-.5.2c-.4,0-.7-.4-.6-.9,0-.4.4-.7.8-.6.2,0,.3.1.4.3v-.8h.4l-.3,1.7v.4h-.2v-.1h0ZM189.2,154.8c0,.3.1.6.4.6.2,0,.4,0,.5-.1v-.6c0-.2-.2-.3-.3-.3-.3,0-.5.1-.5.5l-.1-.1h0Z"/>
          </g>
        </g>
        <rect class="st0" x="229.39" y="122.71" width="2.4" height="16.4" transform="translate(65.58 338.47) rotate(-81.1)"/>
        <g class="st15">
          <g class="st15">
            <path class="st13" d="M223.9,128.9l-.3,1.7,1.2.2v.2l-1.5-.2.3-1.9h.3Z"/>
            <path class="st13" d="M225.2,131l.2-1.4h.2l-.2,1.4h-.2ZM225.6,129s.1,0,.1.2c0,0,0,.1-.2.1,0,0-.1,0-.1-.2,0,0,0-.1.2-.1Z"/>
            <path class="st13" d="M227.2,130.2s-.3-.2-.5-.2-.3,0-.4.2c0,.2.2.2.4.3.2,0,.7.1.6.5,0,.3-.4.4-.7.4s-.5-.2-.6-.3v-.2c.2.1.4.2.7.3.2,0,.4,0,.5-.2,0-.2-.2-.2-.4-.3-.3,0-.6-.1-.6-.5,0-.3.4-.4.6-.3.3,0,.5.2.6.3v.2l-.2-.2h0Z"/>
            <path class="st13" d="M228.8,130.5s-.3-.2-.5-.2-.3,0-.4.2c0,.2.2.2.4.3.2,0,.7.1.6.5,0,.3-.4.4-.7.4s-.5-.2-.6-.3v-.2c.2.1.4.2.7.3.2,0,.4,0,.5-.2,0-.2-.2-.2-.4-.3-.3,0-.6-.1-.6-.5,0-.3.4-.4.6-.3.3,0,.5.2.6.3v.2l-.2-.2h0Z"/>
            <path class="st13" d="M229.2,131.7l.2-1v-.4h.2v.3c.1-.1.3-.2.6-.2s.5.3.5.6v.9h-.4v-.9c.2-.2,0-.3-.1-.3-.2,0-.4,0-.5.2l-.2,1h-.2l-.1-.2h0Z"/>
            <path class="st13" d="M232.3,131.9c-.2.1-.4.2-.7.2-.5,0-.7-.4-.6-.8,0-.4.4-.7.9-.6.3,0,.7.3.6.8h0l-1.2-.2c0,.3.1.5.4.6.2,0,.4,0,.5-.1v.2l.1-.1h0ZM231.3,131.1h.9c0-.1-.2-.3-.4-.3s-.4.1-.5.3Z"/>
            <path class="st13" d="M232.8,132.2l.2-1v-.4h.2v.3c.1-.1.3-.3.5-.2,0,0,.2,0,.2.1v.2h-.3c-.2,0-.3,0-.4.2v1h-.4v-.2h0Z"/>
          </g>
          <g class="st15">
            <path class="st13" d="M236.3,131.2c0-.1-.3-.3-.7-.4-.2,0-.5,0-.6.3,0,.2.3.3.6.4.3,0,.9.2.8.7,0,.5-.5.6-1,.5-.5,0-.8-.3-1-.6l.2-.2c.1.2.4.4.8.5.3,0,.6,0,.7-.3,0-.3-.2-.4-.6-.5-.4,0-.9-.2-.8-.6,0-.4.5-.5.9-.5s.7.3.8.4l-.2.2.1.1h0Z"/>
          </g>
          <g class="st15">
            <path class="st13" d="M236.8,131.4h.3v-.4h.2v.5h.4v.2h-.4l-.1.8c0,.1,0,.2.2.2h.2v.2h-.3c-.2,0-.4-.2-.3-.5v-.9c.1,0-.1,0-.1,0v-.2l-.1.1h0Z"/>
          </g>
        </g>
        <polygon class="st0" points="290.4 268.2 261.4 249.5 262.9 247.1 291.9 265.8 290.4 268.2"/>
        <g class="st15">
          <g class="st15">
            <path class="st13" d="M266,250.2c0-.2-.2-.4-.5-.6s-.5-.2-.6,0,.1.4.4.6c.3.2.7.5.4,1-.2.4-.7.3-1.1,0s-.6-.6-.6-.9h.2c0,.2.2.5.5.7s.6.2.7,0c.2-.2,0-.4-.3-.6-.3-.3-.7-.5-.5-.9s.7-.3,1,0c.3.2.5.5.6.7h-.2Z"/>
          </g>
          <g class="st15">
            <path class="st13" d="M265.8,251.9l.8-1.2h.2c0,.1-.8,1.3-.8,1.3h-.2v-.1ZM267,250.2v.2h-.2v-.2h.2Z"/>
            <path class="st13" d="M266.4,252.3l.6-.9s.1-.2.2-.3h.2c0,.2,0,.3-.1.3.2,0,.3-.1.5,0,0,0,.1.1.1.2h-.7l-.5.8h-.2l-.1-.1Z"/>
          </g>
          <g class="st15">
            <path class="st13" d="M268.1,253.4l1.1-1.6,1.3.8v.2c-.1,0-1.2-.7-1.2-.7l-.3.5.7.4v.2c-.1,0-.8-.4-.8-.4l-.5.8h-.2l-.1-.2Z"/>
          </g>
          <g class="st15">
            <path class="st13" d="M269.6,254.3l.6-.9s.1-.2.2-.3h.2c0,.2,0,.3-.1.3.2,0,.3-.1.5,0,0,0,.1.1.1.2h-.7l-.5.8h-.2l-.1-.1Z"/>
          </g>
          <g class="st15">
            <path class="st13" d="M271.7,255.4c-.2,0-.5,0-.7-.2-.4-.2-.4-.7-.2-1,.2-.4.7-.5,1-.2.3.2.5.6.2,1h0l-1-.7c-.1.2-.1.5.2.7.2.1.4.1.5,0v.4ZM271.1,254.3l.8.5c.1-.2,0-.5-.2-.6s-.4,0-.6,0v.1h0Z"/>
            <path class="st13" d="M272.9,256.5v-.2h-.6c-.3-.2-.4-.6-.2-1,.2-.4.7-.5,1-.2.1,0,.2.2.3.4l.5-.7h.2c0,.1-.9,1.6-.9,1.6,0,0-.1.2-.2.3h-.2l.1-.2h0ZM272.5,255.4c-.2.3-.1.6.1.7s.4,0,.5,0l.3-.5c0-.2-.1-.3-.3-.4s-.5,0-.7.2h.1Z"/>
            <path class="st13" d="M276.2,256.8c0-.2-.2-.4-.5-.6s-.5-.2-.6,0c-.1.2.1.4.4.6s.7.5.4,1c-.2.4-.7.3-1.1,0s-.6-.6-.6-.9h.2c0,.2.2.5.5.7s.6.2.7,0c.2-.2,0-.4-.3-.6-.3-.3-.7-.5-.5-.9s.7-.3,1,0c.3.2.5.5.6.7h-.2Z"/>
            <path class="st13" d="M277.5,258.2c0-.2-.1-.3-.3-.4-.2-.1-.5,0-.7.2-.2.3,0,.6.1.7.2.1.4.1.5,0v.2s-.3,0-.6-.1c-.3-.2-.5-.7-.2-1,.2-.4.7-.4,1-.2.2.1.3.3.4.5h-.2v.1h0Z"/>
            <path class="st13" d="M277.4,259.4l1.1-1.8h.2c0,.1-.5.9-.5.9h.5c.3.2.4.5.2.7l-.5.8h-.2c0-.1.5-.9.5-.9,0-.1,0-.3-.1-.4-.2-.1-.4,0-.5,0l-.5.8h-.2v-.1Z"/>
            <path class="st13" d="M280.3,259.5c.4.2.5.7.2,1-.2.4-.7.5-1,.2-.4-.2-.5-.7-.2-1,.2-.3.7-.5,1-.2ZM279.6,260.6c.3.2.6,0,.7-.2.2-.2.1-.6-.1-.7-.3-.2-.6,0-.7.2-.2.3-.1.6.1.7Z"/>
            <path class="st13" d="M280.5,261.4l.6-.9s.1-.2.2-.3h.2v.3h.6c.3.2.3.5.2.7l-.5.8h-.2c0-.1.5-.9.5-.9,0-.1,0-.3-.1-.4-.2-.1-.4,0-.5,0l-.5.8h-.2l-.3-.1h0Z"/>
            <path class="st13" d="M283.2,262.9c-.2,0-.5,0-.7-.2-.4-.2-.4-.7-.2-1,.2-.4.7-.5,1-.2.3.2.5.6.2,1h0l-1-.7c-.1.2-.1.5.2.7.2.1.4.1.5,0v.4h0ZM282.6,261.7l.8.5c.1-.2,0-.5-.2-.6s-.4,0-.6,0v.1h0Z"/>
            <path class="st13" d="M283.5,263.3l1.1-1.8h.2c0,.1-1.1,1.9-1.1,1.9h-.2v-.1Z"/>
            <path class="st13" d="M284.2,263.8l1.1-1.8h.2c0,.1-1.1,1.9-1.1,1.9h-.2v-.1Z"/>
          </g>
          <g class="st15">
            <path class="st13" d="M285.6,264.7l1.1-1.6.7.5c.3.2.4.4.5.6,0,.2,0,.5-.2.7s-.4.4-.6.5c-.2,0-.4,0-.8-.2l-.7-.5ZM286.4,264.9c.2.2.4.2.6.1.2,0,.4-.2.5-.4.1-.2.2-.4.1-.6,0-.2-.1-.3-.4-.5l-.5-.3-.8,1.3.5.3v.1h0Z"/>
          </g>
          <g class="st15">
            <path class="st13" d="M287.5,265.9l.6-.9s.1-.2.2-.3h.2c0,.2,0,.3-.1.3.2,0,.3-.1.5,0,0,0,.1.1.1.2h-.7l-.5.8h-.2l-.1-.1Z"/>
          </g>
        </g>
        <rect class="st0" x="95.21" y="209.37" width="4.9" height="29.1" transform="translate(-126.77 320.41) rotate(-89.7)"/>
        <g class="st15">
          <g class="st15">
            <path class="st22" d="M87.8,222.6h2.5v.5h-1v2.2h-.6v-2.2h-1v-.5h.1Z"/>
          </g>
          <g class="st15">
            <path class="st22" d="M91.5,222.6h.5l1.2,2.7h-.6l-.2-.6h-1.2l-.2.6h-.6l1.3-2.7h-.2ZM91.3,224.3h.8l-.4-.9h0l-.4.9Z"/>
            <path class="st22" d="M93.7,225.3v-2.7h1.5c.4,0,.6.1.8.3.1.1.2.3.2.6s-.2.6-.5.8l.6,1.1h-.7l-.5-1h-.8v1h-.6v-.1h0ZM94.3,223.2v.7h1c.2,0,.4-.1.4-.4v-.2c0-.1-.2-.1-.3-.1h-1.1Z"/>
            <path class="st22" d="M96.9,225.4v-2.7h.6v2.7h-.6Z"/>
            <path class="st22" d="M100.8,222.7v2.7h-.5l-1.4-1.7h0v1.7h-.6v-2.7h.5l1.4,1.7h0v-1.7h.6Z"/>
            <path class="st22" d="M103.7,223.5c-.2-.2-.6-.3-.9-.3-.5,0-.9.4-.9.9s.3.9.9.9c.2,0,.5,0,.7-.2v-.5h-.8v-.5h1.4v1.2c-.4.3-.8.4-1.3.4-.9,0-1.5-.6-1.5-1.4s.7-1.4,1.5-1.4c.4,0,.9.2,1.3.5l-.4.4h0Z"/>
            <path class="st22" d="M105.8,222.7h.5l1.2,2.7h-.6l-.2-.6h-1.2l-.2.6h-.6l1.3-2.7h-.2ZM105.6,224.4h.8l-.4-.9h0l-.4.9Z"/>
          </g>
        </g>
        <polygon class="st0" points="155.5 226.4 137.7 233.3 136.9 231.2 154.7 224.3 155.5 226.4"/>
        <g class="st15">
          <g class="st15">
            <path class="st13" d="M141.2,231.8l-.5-1.4h0l-.2,1.4h0l-1.1-.8h0l.5,1.4h-.2l-.7-1.7h.3c0-.1,1.1.8,1.1.8h0l.2-1.4h.2l.7,1.7h-.3Z"/>
          </g>
          <g class="st15">
            <path class="st13" d="M142.1,229.9c.4-.2.8,0,1,.4s0,.8-.4,1-.8,0-1-.4,0-.8.4-1ZM142.6,231.1c.3-.1.4-.4.3-.7-.1-.3-.4-.4-.7-.3-.3.1-.4.4-.3.7.1.3.4.4.7.3Z"/>
            <path class="st13" d="M144.7,230.3c0,.2-.2.3-.4.4-.4.1-.8,0-.9-.4-.2-.4,0-.8.4-1h.6v-.2h.2v.3l.4,1.1c.1.3,0,.6-.4.8-.3.1-.5,0-.7,0v-.2h.6c.3-.1.4-.3.3-.5v-.3h-.1ZM144.6,230.1l-.2-.6s-.3-.1-.5,0c-.2,0-.4.4-.2.7.1.3.4.4.6.3.2,0,.3-.2.4-.4h-.1Z"/>
            <path class="st13" d="M146.5,229.6c0,.2-.2.3-.4.4-.4.1-.8,0-.9-.4-.2-.4,0-.8.4-1h.6v-.2h.2s0,.2.1.3l.4,1.1c.1.3,0,.6-.4.8-.3.1-.5,0-.7,0v-.2h.6c.3-.1.4-.3.3-.5v-.3h-.2ZM146.4,229.4l-.2-.6s-.3-.1-.5,0c-.2,0-.4.4-.2.7.1.3.4.4.6.3.2,0,.3-.2.4-.4h-.1Z"/>
            <path class="st13" d="M146.6,227.5h.2v.2h-.2v-.2ZM147.3,229.5l-.5-1.3h.2l.5,1.2h-.2v.1Z"/>
            <path class="st13" d="M148,229.2l-.8-2h.2l.8,1.9h-.2v.1Z"/>
            <path class="st13" d="M148.8,228.9l-.8-2h.2l.8,1.9h-.2v.1Z"/>
          </g>
          <g class="st15">
            <path class="st13" d="M150.3,228.3l-.7-1.8,1-.4h.6c.1,0,.2.2.3.3,0,.2,0,.5-.2.7l.8.6h-.3c0,.1-.7-.5-.7-.5l-.7.3.3.7h-.2l-.2.1h0ZM149.9,226.6l.3.7.8-.3c.2,0,.3-.3.2-.5,0,0,0-.1-.2-.2h-.4l-.8.3h.1,0Z"/>
          </g>
          <g class="st15">
            <path class="st13" d="M153.4,227.1v-.2c0,.1-.1.3-.4.4-.4.1-.8,0-.9-.4-.2-.4,0-.8.4-1h.5l-.3-.8h.2l.6,1.5c0,.1,0,.2.2.3h-.2l-.1.2ZM152.2,226.8c.1.3.4.4.6.3.2,0,.3-.3.3-.4l-.2-.6h-.5c-.2,0-.4.4-.2.7h0Z"/>
          </g>
        </g>
        <rect class="st0" x="16.45" y="92.16" width="22.4" height="3.3" transform="translate(-44.02 27.26) rotate(-30.7)"/>
        <g class="st15">
          <g class="st15">
            <path class="st13" d="M19.4,97.7l1.2,1.1h0l-.4-1.6h.2c0-.1,1.2,1,1.2,1h0l-.4-1.6h.2c0-.1.5,1.9.5,1.9h-.2c0,.1-1.2-.9-1.2-.9h0l.3,1.5h-.2c0,.1-1.5-1.2-1.5-1.2h.2s.1-.2.1-.2Z"/>
          </g>
          <g class="st15">
            <path class="st13" d="M23.8,97.2c0,.2-.2.4-.5.6-.4.2-.8,0-1-.3-.2-.4-.1-.8.3-1,.3-.2.7-.2,1,.2h0l-1,.6c.2.2.4.3.7.2.2-.1.3-.3.3-.4h.2v.1h0ZM22.5,97.2l.8-.5c-.1-.2-.4-.2-.6-.1s-.3.4-.2.6Z"/>
            <path class="st13" d="M24.7,95.6c-.1,0-.3,0-.5.1-.1,0-.3.2-.2.4,0,.1.3,0,.4,0,.2-.1.6-.3.8,0,.2.3,0,.6-.3.7-.3.2-.5.2-.7.2v-.2c.1,0,.4,0,.6-.1s.3-.3.2-.4c0-.2-.3,0-.5,0-.3.1-.6.3-.7,0-.2-.3,0-.5.3-.7.2-.1.5-.2.6-.2,0,0,0,.2,0,.2Z"/>
            <path class="st13" d="M24.9,95.2h.2c0-.1-.2-.5-.2-.5h.2c0-.1.2.2.2.2l.4-.2v.2l-.3.2.4.8c0,.1.2.1.3,0,0,0,.2-.1.2-.2h.1c0,.2-.1.3-.2.4-.2,0-.4.1-.5-.1l-.4-.8h-.2c0,.1,0,0,0,0h-.2Z"/>
            <path class="st13" d="M27.8,94.8c0,.2-.2.4-.5.6-.4.2-.8,0-1-.3-.2-.4-.1-.8.3-1,.3-.2.7-.2,1,.2h0l-1,.6c.2.2.4.3.7.2.2-.1.3-.3.3-.4h.2v.1h0ZM26.5,94.9l.8-.5c-.1-.2-.4-.2-.6-.1s-.3.4-.2.6Z"/>
            <path class="st13" d="M28.3,94.8l-.5-.9c0-.1-.1-.2-.2-.3h.4c0-.2,0-.4.2-.5h.2v.2h-.1c-.1,0-.2.3-.2.4l.5.8h-.2s-.1.3-.1.3Z"/>
            <path class="st13" d="M29.3,94.2l-.5-.9s-.1-.2-.2-.3h.3c0-.2,0-.4.3-.5.3-.2.6,0,.7.2l.5.8h-.2c0,.1-.5-.7-.5-.7,0-.1-.3-.2-.4,0-.2.1-.2.3-.3.4l.5.9h-.2s0,.1,0,.1Z"/>
          </g>
          <g class="st15">
            <path class="st13" d="M31.6,92.8l-1-1.7,1.3-.8v.2c.1,0-1,.7-1,.7l.3.5.7-.4v.2c.1,0-.6.4-.6.4l.5.8h-.2s0,.1,0,.1Z"/>
          </g>
          <g class="st15">
            <path class="st13" d="M34.1,89.7l.3,1.5h-.2c0,.1-.8-.6-.8-.6h0l.3,1.1h-.2c0,.1-1.1-.8-1.1-.8h.2c0-.1.8.6.8.6h0l-.3-1.1h.2c0-.1.8.6.8.6h0l-.3-1.1h.2l.1-.2Z"/>
            <path class="st13" d="M35.5,88.8l.2,2.3h-.2c0,.1,0-.7,0-.7l-1.2-.8h.2c0-.1.9.6.9.6h0l-.1-1.2h.2s0-.2,0-.2Z"/>
          </g>
        </g>
        <rect class="st0" x="68.13" y="8.17" width="3.4" height="25.9" transform="translate(31.24 83.04) rotate(-74.9)"/>
        <g class="st15">
          <g class="st15">
            <path class="st13" d="M60.5,19.7l.4-1.4h0l-1,1h0l-.4-1.4h0l-.4,1.4h-.2l.5-2h.3l.4,1.5h0l1-1h.3l-.5,2h-.3l-.1-.1Z"/>
          </g>
          <g class="st15">
            <path class="st13" d="M61.5,18.5h.3l.1-.3h.2l-.1.5h.4v.3h-.4c0-.1-.2.7-.2.7,0,.1,0,.2.1.2h.2v.2h-.3c-.2,0-.4-.2-.3-.5l.2-.8h-.3v-.3s.1,0,.1,0Z"/>
          </g>
          <g class="st15">
            <path class="st13" d="M65.1,20.6c-.3.1-.6.2-1,.1-.6-.2-.9-.7-.8-1.3.1-.5.7-.9,1.3-.7.3,0,.6.3.8.6h-.2c-.1,0-.4-.3-.6-.3-.5-.1-.9.1-1,.6-.1.4.1.9.6,1,.3,0,.6,0,.8-.1v.2s.1-.1.1-.1Z"/>
          </g>
          <g class="st15">
            <path class="st13" d="M66.4,19.8c.4.1.6.5.5.9s-.5.6-.9.5-.6-.5-.5-.9.5-.6.9-.5ZM66,21.1c.3,0,.6-.1.6-.4s0-.6-.4-.7c-.3,0-.6.1-.6.4s0,.6.3.7h.1Z"/>
            <path class="st13" d="M68.2,20.3c.4.1.6.5.5.9s-.5.6-.9.5-.6-.5-.5-.9.5-.6.9-.5ZM67.8,21.5c.3,0,.6-.1.6-.4s0-.6-.4-.7c-.3,0-.6.1-.6.4s0,.6.3.7h.1Z"/>
            <path class="st13" d="M69.1,20.6h.3l.1-.3h.2l-.1.5h.4v.3h-.4c0-.1-.2.7-.2.7,0,.1,0,.2.1.2h.2v.2h-.3c-.2,0-.4-.2-.3-.5l.2-.8h-.3v-.3h.1Z"/>
          </g>
          <g class="st15">
            <path class="st13" d="M70.2,21.4l.7.2v.2l-.8-.2v-.2h.1Z"/>
          </g>
          <g class="st15">
            <path class="st13" d="M71.3,20.6l1.7.5v.2l-.8-.2-.5,1.7h-.3l.5-1.7-.7-.2v-.2s.1-.1.1-.1Z"/>
            <path class="st13" d="M72.9,23.1l.6-2h.2l-.2.9c.1,0,.3-.2.5-.1.3,0,.5.3.4.6l-.3.9h-.2l.3-1c0-.2,0-.3-.3-.4-.2,0-.4,0-.5.1l-.3,1h-.2Z"/>
            <path class="st13" d="M75,22.3h.7c.3,0,.6.3.5.6l-.2.8v.3h-.2v-.3c-.1,0-.3.1-.6,0-.3,0-.5-.3-.4-.6,0-.2.3-.4.7-.3.2,0,.4.1.4.3v-.2c.1-.2,0-.3-.3-.4h-.6s0-.2,0-.2ZM75.7,23.4v-.2c0-.1-.2-.2-.4-.3-.3,0-.5,0-.5.1,0,.2,0,.3.3.4h.6Z"/>
          </g>
          <g class="st15">
            <path class="st13" d="M77.1,24.2l.5-1.9,1,.3c.2,0,.4.2.5.3v.4c0,.3-.3.4-.6.4l.2.9h-.3l-.2-1-.8-.2-.2.8h-.3s.2,0,.2,0ZM77.8,22.6l-.2.7.9.2c.2,0,.4,0,.5-.2v-.2c0-.1-.2-.2-.3-.2l-.8-.2s-.1-.1-.1-.1Z"/>
          </g>
          <g class="st15">
            <path class="st13" d="M80.3,25.1v-.2s-.3.2-.5.1c-.4-.1-.6-.5-.5-.9s.5-.6.9-.5c.2,0,.3.2.4.3l.2-.8h.2l-.5,1.7v.4h-.2v-.1ZM79.6,24.2c0,.3,0,.6.3.6h.5l.2-.6c0-.2-.2-.3-.4-.3s-.5,0-.6.4v-.1Z"/>
          </g>
        </g>
      </g>
    </g>
  </g>
  <line class="st7" x1="243.9" y1="219.5" x2="243.9" y2="197.5"/>
  <path class="st23" d="M243.9,220.4c.5,0,1-.4,1-1s-.4-1-1-1-1,.4-1,1,.4,1,1,1"/>
  <path class="st23" d="M243.8,209.1c6.8,0,12.3-5.7,12.3-12.7s-5.5-12.7-12.3-12.7-12.3,5.7-12.3,12.7,5.5,12.7,12.3,12.7"/>
  <path class="st0" d="M245.5,205.5c-2.2-2.6-3.5-5.5-3.5-8.4s.9-4.5,3.2-6.9c.6-.6,1.3-1.3,2-1.9,2,1.6,3.3,4.6,3.3,8.1s-2.1,8-4.9,9M237.7,200.5c.8-2.5,2.2-5.2,4.5-7.7-1.4,2-2.2,4.1-2.2,6.8s.6,3.9,1.6,5.7c-1.7-.8-3.1-2.5-3.9-4.8M237,196.4c0-5.3,3-9.4,6.7-9.4s1.6.2,2.3.6c-.3.5-.6,1-1.1,1.5-4.2,4.4-6.3,7-7.6,10.5-.2-1-.4-2-.4-3.1M243.8,186.6c-5,0-9.2,4.1-9.2,9.8s4.1,9.8,9.2,9.8,9.2-4.1,9.2-9.8-4.2-9.8-9.2-9.8"/>
</svg>